<?xml version="1.0" standalone="no"?>
<!DOCTYPE svg PUBLIC "-//W3C//DTD SVG 20010904//EN"
 "http://www.w3.org/TR/2001/REC-SVG-20010904/DTD/svg10.dtd">
<svg version="1.0" xmlns="http://www.w3.org/2000/svg"
 width="1728.000000pt" height="1867.000000pt" viewBox="0 0 1728.000000 1867.000000"
 preserveAspectRatio="xMidYMid meet">

<g transform="translate(0.000000,1867.000000) scale(0.100000,-0.100000)"
fill="#000000" stroke="none">
<path d="M8360 18276 l0 -213 -151 -7 c-83 -4 -153 -5 -156 -2 -5 5 -21 266
-22 364 -1 33 -2 34 -38 28 -21 -3 -127 -8 -237 -12 l-198 -7 6 -191 c4 -105
9 -212 12 -238 l6 -46 98 5 c116 7 106 19 116 -148 l7 -116 -89 -7 c-286 -23
-819 -90 -1024 -130 -41 -8 -78 -11 -81 -8 -6 7 -51 234 -46 237 1 1 49 12
107 24 57 12 105 23 107 25 4 4 -87 449 -93 455 -3 4 -258 -45 -395 -76 l-66
-15 39 -190 c21 -105 37 -193 34 -195 -7 -7 -309 -74 -313 -69 -2 2 -27 93
-55 202 -28 110 -52 200 -53 202 -6 8 -455 -112 -455 -122 0 -6 23 -99 50
-206 27 -107 48 -195 47 -196 -10 -11 -293 -81 -297 -75 -3 5 -29 91 -59 191
-39 130 -58 180 -67 176 -7 -3 -108 -33 -224 -68 -137 -41 -210 -67 -210 -76
0 -17 121 -425 129 -434 4 -4 29 -1 56 8 28 8 71 21 97 29 l47 14 39 -119 40
-118 -137 -47 c-306 -107 -639 -236 -885 -344 -77 -34 -145 -61 -151 -61 -11
0 -95 173 -95 195 0 6 41 31 91 55 50 25 93 48 95 52 4 7 -17 54 -134 300
l-61 127 -211 -101 c-115 -56 -210 -106 -210 -111 0 -6 37 -86 82 -179 45 -92
79 -170 77 -172 -15 -13 -285 -144 -290 -140 -4 2 -48 82 -99 177 -50 94 -95
176 -100 180 -4 5 -69 -25 -144 -65 -102 -55 -136 -77 -133 -89 10 -38 412
-751 746 -1322 l361 -618 -24 -32 c-41 -55 -56 -94 -56 -145 0 -40 5 -54 26
-75 33 -33 85 -43 141 -29 23 7 47 13 54 14 10 3 152 -231 355 -584 l56 -97
-35 -45 c-93 -122 -62 -256 60 -256 35 0 76 15 190 70 185 90 519 238 738 328
1674 685 3104 857 4625 556 765 -151 1642 -451 2545 -870 173 -80 196 -88 252
-88 57 -1 65 2 94 31 27 26 32 40 32 76 0 52 -37 123 -83 159 l-29 23 207 362
207 362 45 -5 c64 -8 116 15 135 59 16 39 10 73 -25 135 l-22 39 347 604 c191
332 362 629 380 659 53 89 375 680 375 688 0 4 -63 40 -140 80 l-139 73 -14
-23 c-8 -13 -51 -93 -97 -178 -45 -85 -85 -159 -90 -163 -9 -10 -290 129 -290
143 0 5 37 86 82 180 44 93 79 172 77 174 -9 8 -408 196 -416 196 -5 0 -55
-95 -111 -210 l-101 -211 96 -45 c54 -25 99 -47 102 -49 3 -4 -71 -183 -85
-203 -1 -2 -102 39 -225 91 -246 104 -572 228 -803 307 -82 27 -152 52 -154
55 -3 3 64 217 74 237 2 3 47 -7 101 -23 53 -16 97 -28 99 -27 6 6 136 449
133 452 -5 3 -431 129 -442 130 -5 1 -34 -82 -64 -184 -31 -102 -57 -186 -58
-188 -3 -4 -287 77 -293 83 -3 3 18 96 47 206 28 111 50 203 49 205 -7 7 -451
114 -455 110 -3 -3 -27 -94 -55 -203 -27 -109 -51 -199 -52 -201 -5 -4 -306
65 -313 72 -3 3 11 90 32 192 24 121 34 189 27 193 -5 3 -108 26 -227 50 -149
31 -219 41 -223 34 -4 -6 -27 -109 -51 -228 -33 -162 -42 -218 -33 -224 7 -4
55 -15 107 -25 85 -16 95 -20 95 -40 -1 -32 -37 -216 -43 -223 -4 -3 -107 10
-229 30 -252 41 -549 79 -808 103 -96 8 -176 17 -178 19 -2 1 1 60 5 131 l8
129 112 -1 111 -1 6 61 c3 34 8 141 12 239 l6 177 -78 1 c-44 0 -149 4 -234 8
-85 5 -156 7 -157 6 -2 -1 -7 -88 -12 -194 -5 -106 -12 -195 -15 -198 -3 -3
-77 -2 -165 2 l-161 7 0 214 0 214 -235 0 -235 0 0 -214z m430 -31 l0 -195
-195 0 -195 0 0 195 0 195 195 0 195 0 0 -195z m-799 98 c1 -32 4 -119 8 -193
l6 -135 108 -3 107 -3 0 -144 0 -144 -52 -5 c-29 -3 -112 -8 -184 -11 l-132
-6 -5 33 c-3 18 -9 80 -12 138 -4 58 -9 112 -11 121 -4 14 -19 15 -103 11
l-99 -5 -6 84 c-3 46 -7 134 -8 194 l-3 110 120 5 c66 4 153 7 193 8 l72 2 1
-57z m1606 42 c9 -3 11 -28 8 -87 -3 -46 -8 -132 -11 -192 l-6 -108 -112 3
-111 4 -9 -153 -9 -153 -156 6 c-226 9 -201 -11 -201 161 l0 145 104 -3 105
-3 5 29 c3 16 6 61 6 100 0 39 3 115 7 169 l6 98 181 -6 c100 -4 186 -8 193
-10z m-2911 -305 c18 -85 35 -169 38 -185 l6 -30 -107 -23 c-58 -12 -108 -23
-110 -25 -1 -2 8 -62 22 -133 14 -71 25 -134 25 -140 0 -7 -30 -17 -67 -24
-285 -48 -835 -186 -1226 -306 -82 -25 -152 -42 -157 -38 -4 5 -27 65 -50 134
-24 69 -44 126 -46 128 -1 2 -43 -9 -93 -24 -56 -17 -95 -24 -100 -18 -10 10
-115 354 -109 359 10 8 360 106 365 101 3 -3 29 -84 59 -182 29 -97 55 -179
58 -181 5 -5 365 92 373 101 2 2 -19 95 -47 206 -28 111 -50 204 -48 205 5 4
352 90 363 90 5 0 32 -89 60 -197 28 -108 53 -199 56 -203 6 -5 385 73 398 82
2 1 -14 88 -35 192 -21 104 -37 192 -34 194 8 8 334 76 354 74 17 -2 24 -23
52 -157z m4077 123 c98 -20 177 -41 177 -47 0 -6 -18 -94 -39 -194 -25 -123
-34 -185 -27 -187 47 -15 389 -86 393 -81 3 2 27 94 55 203 27 109 50 199 51
200 3 2 359 -87 368 -92 4 -3 -17 -97 -46 -209 l-53 -204 183 -51 c100 -28
186 -51 192 -51 5 0 34 82 63 183 30 100 55 184 57 186 3 4 296 -80 349 -100
22 -8 21 -9 -31 -184 -29 -97 -55 -179 -59 -182 -3 -4 -48 5 -98 20 -54 16
-94 23 -98 17 -3 -5 -25 -67 -50 -137 -24 -70 -44 -129 -45 -131 -2 -2 -101
27 -221 64 -270 81 -775 209 -1029 259 -104 21 -193 41 -196 44 -3 3 6 70 21
148 l27 142 -46 10 c-25 5 -74 15 -108 21 -35 7 -63 18 -63 24 -1 37 75 366
84 366 6 0 91 -16 189 -37z m-2243 -263 c22 -22 26 -70 9 -102 -10 -18 -5 -27
40 -72 l51 -51 49 49 49 48 -16 39 c-35 91 51 142 133 78 91 -72 47 -190 -57
-154 -36 12 -37 12 -85 -37 l-48 -48 63 -63 63 -62 19 25 19 25 35 -34 c20
-19 36 -40 36 -47 0 -20 -23 -23 -45 -5 -19 15 -19 15 -3 -4 16 -19 16 -22 -3
-45 l-19 -25 -97 103 -96 103 -59 -58 c-32 -31 -58 -62 -58 -67 0 -14 -61 -76
-74 -76 -6 0 -16 11 -22 24 -9 20 -8 28 5 42 15 17 15 18 -4 3 -19 -15 -55
-15 -55 0 0 4 18 25 40 46 34 33 42 37 50 25 5 -8 10 -18 10 -22 0 -21 31 -2
83 50 l57 58 -53 52 c-39 38 -56 49 -64 41 -21 -21 -85 -13 -106 12 -62 77 84
218 153 149z m-294 -297 c30 -137 90 -220 203 -282 l55 -29 -35 -6 c-19 -3
-129 -8 -246 -11 -117 -3 -226 -8 -244 -12 l-32 -6 8 79 c5 43 11 124 14 179
l6 100 70 6 c39 3 98 6 132 7 61 2 63 1 69 -25z m1003 11 c2 -2 7 -59 12 -126
4 -68 11 -147 15 -176 l7 -54 -81 7 c-45 4 -168 10 -274 14 l-193 6 58 29
c109 56 200 173 214 276 l6 41 116 -7 c64 -4 118 -8 120 -10z m-1319 -36 c0
-41 -18 -241 -25 -285 -6 -36 10 -32 -224 -56 -92 -9 -134 -10 -136 -3 -10 32
-37 337 -31 343 8 8 241 30 344 32 l72 1 0 -32z m1618 18 c84 -8 156 -16 159
-19 5 -6 -32 -346 -38 -351 -7 -5 -329 30 -335 37 -11 11 -23 103 -30 230 l-7
117 49 0 c27 0 118 -7 202 -14z m-2054 -48 c6 -35 36 -301 36 -316 0 -5 -42
-15 -92 -21 -131 -17 -559 -87 -670 -110 -69 -15 -95 -16 -100 -8 -32 50 -124
336 -111 347 16 15 795 135 910 139 17 1 23 -6 27 -31z m2521 -3 c202 -25 686
-103 695 -111 5 -5 -49 -173 -92 -287 -23 -60 -34 -77 -47 -73 -71 21 -490 94
-725 126 -82 11 -152 22 -154 25 -5 5 26 308 34 338 5 15 13 17 47 12 23 -3
132 -16 242 -30z m-3496 -167 c8 -29 34 -108 58 -176 25 -68 43 -125 40 -128
-7 -7 -138 -37 -141 -32 -7 7 -86 362 -82 366 7 6 66 20 92 21 16 1 23 -9 33
-51z m4295 33 c5 -7 -71 -359 -79 -369 -2 -2 -25 3 -52 10 l-50 13 38 100 c21
55 48 135 61 177 21 72 25 78 50 78 15 0 29 -4 32 -9z m-4394 -195 c22 -98 40
-180 38 -181 -2 -1 -57 -15 -123 -30 -152 -35 -576 -151 -762 -208 -94 -30
-143 -41 -146 -33 -64 167 -127 359 -121 366 33 31 1047 290 1066 271 4 -3 25
-86 48 -185z m4605 154 c268 -59 906 -228 923 -245 4 -4 -115 -344 -127 -364
-6 -9 -15 -9 -37 -1 -103 40 -852 241 -987 265 -20 4 -39 10 -41 14 -4 6 67
325 79 359 3 7 14 10 27 7 13 -3 86 -19 163 -35z m-7155 -207 c44 -91 80 -170
80 -174 0 -5 -42 -30 -92 -55 -51 -25 -95 -48 -97 -50 -2 -2 19 -56 48 -120
28 -64 51 -120 49 -126 -2 -5 -86 -48 -188 -96 -102 -48 -257 -125 -344 -170
-127 -65 -162 -80 -171 -70 -17 19 -315 564 -315 576 0 13 189 114 200 107 5
-3 36 -58 71 -123 34 -64 77 -145 96 -179 l34 -62 182 90 c100 50 183 93 185
94 2 2 -35 83 -82 180 l-85 177 172 83 c95 46 173 84 174 84 2 1 39 -74 83
-166z m9940 -16 c0 -4 -36 -82 -80 -174 -44 -91 -80 -170 -80 -174 0 -7 351
-189 364 -189 2 0 47 82 101 183 54 100 99 184 101 186 4 5 204 -103 204 -110
0 -6 -307 -567 -315 -577 -2 -2 -79 35 -171 81 -162 81 -475 230 -521 248 -22
8 -22 9 26 112 73 156 77 137 -39 190 l-99 46 43 93 c24 51 62 130 84 175 l42
82 170 -82 c93 -45 170 -86 170 -90z m-5370 115 c0 -4 -12 -13 -27 -19 -90
-40 -154 -138 -163 -248 l-5 -70 -56 -3 c-52 -3 -57 -1 -62 20 -7 29 -21 307
-16 310 2 0 76 4 164 8 88 3 161 7 163 8 1 1 2 -1 2 -6z m330 -39 c87 -40 124
-73 157 -141 l28 -57 3 -407 4 -408 -61 0 -61 0 0 348 c-1 373 -3 389 -54 457
-89 116 -242 118 -340 3 -62 -72 -66 -100 -66 -475 l0 -333 -50 0 -50 0 0 408
c1 314 4 416 14 445 61 168 293 247 476 160z m310 30 l63 -6 -7 -121 c-4 -67
-9 -140 -12 -163 -6 -41 -8 -43 -39 -43 -18 0 -47 3 -64 6 -27 6 -31 11 -31
38 -1 102 -53 196 -144 257 l-58 39 114 0 c63 0 143 -3 178 -7z m-986 -55 c4
-29 7 -105 9 -168 l2 -115 -113 -9 c-62 -4 -115 -6 -118 -4 -2 3 9 61 25 129
16 68 32 143 36 166 7 47 13 49 102 52 l52 1 5 -52z m1176 42 c13 0 19 -12 24
-47 7 -44 49 -234 62 -276 5 -16 1 -18 -38 -13 -23 3 -74 8 -112 12 l-68 6 6
121 c4 67 9 142 13 166 l6 43 45 -6 c25 -3 53 -6 62 -6z m-1384 -54 c-5 -50
-61 -284 -69 -292 -2 -2 -75 -13 -163 -24 -87 -11 -239 -34 -337 -51 -99 -17
-181 -29 -183 -27 -7 8 -68 337 -63 342 12 12 670 98 803 105 17 1 18 -4 12
-53z m1724 23 c197 -21 570 -75 579 -84 6 -7 -50 -307 -60 -319 -4 -5 -78 3
-171 18 -90 15 -239 36 -333 47 -217 26 -214 25 -224 53 -8 19 -45 178 -66
282 l-6 32 48 -5 c26 -2 131 -13 233 -24z m-2556 -96 c6 -21 53 -267 58 -303
3 -24 -1 -25 -126 -52 -95 -20 -133 -25 -143 -17 -18 16 -165 311 -157 318 6
7 307 69 341 70 13 1 24 -6 27 -16z m-1706 -171 c34 -97 62 -182 62 -188 0
-11 -100 -47 -108 -39 -3 3 -11 53 -19 112 -8 60 -22 147 -31 196 -10 48 -16
90 -13 92 2 3 14 5 25 5 18 0 30 -25 84 -178z m5056 147 c89 -17 164 -33 168
-37 7 -7 -124 -278 -146 -300 -11 -12 -35 -10 -141 12 -71 14 -131 28 -133 31
-5 4 45 285 55 313 7 17 16 16 197 -19z m1599 22 l23 -9 -18 -89 c-10 -48 -23
-136 -30 -195 -7 -60 -16 -108 -22 -108 -26 0 -116 35 -116 45 0 12 116 341
126 356 6 11 7 11 37 0z m-6798 -77 c18 -77 45 -262 45 -306 l0 -34 -212 -73
c-117 -41 -307 -109 -422 -152 -115 -44 -210 -78 -212 -77 -7 9 -175 351 -172
352 42 30 945 361 956 351 2 -2 9 -29 17 -61z m7365 -117 c205 -75 460 -179
460 -188 0 -7 -156 -326 -164 -336 -1 -1 -92 31 -201 71 -110 40 -302 108
-427 151 -259 88 -236 67 -218 202 10 76 37 221 46 255 4 14 31 8 207 -52 111
-37 245 -84 297 -103z m-5853 -33 c50 -101 77 -167 70 -169 -7 -2 -79 -19
-162 -39 -82 -20 -159 -39 -170 -42 -18 -4 -23 3 -38 50 -43 141 -135 210
-297 226 l-65 6 215 52 c288 70 332 80 350 81 10 0 45 -60 97 -165z m4168 102
c289 -69 295 -71 227 -80 -134 -18 -225 -95 -263 -224 -11 -37 -16 -43 -33
-38 -12 3 -93 22 -181 43 -88 20 -162 38 -163 39 -2 1 31 73 75 158 48 97 84
156 93 156 8 0 119 -25 245 -54z m-1680 -91 c150 -9 164 -13 171 -43 10 -40
89 -243 114 -292 l22 -43 -49 7 c-79 10 -385 36 -430 36 l-43 0 0 176 0 176
63 -6 c34 -3 103 -8 152 -11z m-957 -162 l-3 -168 -95 -7 c-52 -4 -165 -14
-250 -23 -86 -8 -161 -15 -167 -15 -6 0 10 51 37 113 26 61 55 137 65 167 9
30 22 60 27 65 9 10 178 28 311 33 l77 3 -2 -168z m-2069 136 c65 -14 134 -58
167 -109 19 -28 62 -159 136 -407 59 -201 108 -371 108 -378 0 -13 -56 -35
-87 -35 -6 0 -19 26 -28 58 -103 357 -170 575 -188 611 -39 79 -124 130 -215
131 -29 0 -65 -6 -80 -14 -41 -21 -88 -76 -111 -126 -36 -79 -29 -123 70 -462
49 -171 88 -316 86 -322 -5 -11 -86 -41 -92 -34 -1 2 -51 169 -110 372 -98
336 -107 375 -103 431 6 69 24 109 74 165 96 106 232 150 373 119z m3354 -5
c42 -3 80 -10 83 -15 3 -5 -2 -69 -10 -142 -22 -180 -25 -197 -37 -197 -15 0
-133 276 -146 342 -5 26 -3 30 13 25 10 -3 54 -9 97 -13z m1799 -18 c118 -56
208 -174 208 -275 0 -41 -199 -757 -220 -790 -5 -9 -18 -9 -53 0 -26 6 -47 14
-47 18 0 3 43 152 95 330 53 180 95 343 95 366 0 87 -61 194 -131 230 -70 37
-205 3 -262 -65 -44 -51 -50 -69 -136 -365 -45 -154 -89 -301 -97 -326 l-15
-47 -42 11 c-23 5 -45 13 -50 16 -9 9 203 732 231 786 51 100 149 147 293 141
56 -3 91 -11 131 -30z m-5475 -7 c-117 -77 -180 -207 -158 -323 6 -28 13 -61
17 -72 5 -20 -8 -26 -203 -91 l-208 -70 -1 204 0 204 155 49 c251 79 415 128
430 129 8 1 -6 -13 -32 -30z m1953 26 c0 -13 -73 -201 -105 -272 -38 -83 -60
-103 -70 -60 -12 54 -36 299 -30 305 10 10 205 36 205 27z m2018 -40 c193 -29
559 -98 568 -108 11 -10 -84 -148 -196 -289 -15 -18 -20 -18 -205 16 -105 19
-234 40 -289 47 -62 8 -100 18 -103 26 -5 12 24 294 32 321 6 16 -2 16 193
-13z m1738 -19 c82 -24 204 -61 272 -81 l122 -38 0 -194 c0 -151 -3 -194 -12
-191 -7 2 -100 32 -206 67 -160 53 -192 67 -186 80 4 9 9 52 11 96 4 61 1 90
-11 120 -26 61 -66 114 -115 151 -24 19 -40 34 -34 34 5 0 77 -20 159 -44z
m-3964 -111 c26 -215 43 -187 -133 -214 -82 -13 -203 -34 -267 -46 -109 -21
-118 -22 -136 -7 -22 20 -141 177 -179 239 l-27 42 38 10 c111 30 629 121 667
118 17 -2 21 -16 37 -142z m-3341 -47 c23 -46 61 -124 84 -174 l43 -91 -167
-66 c-91 -37 -173 -69 -183 -72 -12 -5 -27 9 -56 52 -53 79 -164 264 -160 268
3 3 335 149 358 158 33 12 41 4 81 -75z m9044 -28 c39 -18 80 -36 93 -41 22
-9 22 -9 6 -41 -9 -18 -53 -90 -96 -160 l-80 -127 -66 25 c-37 14 -114 44
-172 66 -58 22 -106 41 -108 43 -2 1 35 80 82 174 l86 170 92 -39 c51 -21 125
-53 163 -70z m-2744 64 l75 -17 -39 -166 c-22 -91 -41 -168 -43 -170 -4 -5
-297 61 -306 69 -5 3 19 41 52 84 33 43 81 112 107 152 32 51 52 73 62 70 9
-2 50 -12 92 -22z m-3723 -23 c12 -21 58 -87 102 -146 44 -59 79 -110 76 -112
-8 -8 -349 -83 -354 -78 -6 6 -84 317 -80 320 6 4 203 53 219 54 8 1 25 -16
37 -38z m-1580 -193 l-3 -203 -88 -31 c-79 -28 -89 -30 -94 -15 -4 9 -35 85
-70 170 -35 85 -63 160 -63 167 0 11 272 111 308 113 10 1 12 -43 10 -201z
m7000 120 c45 -16 82 -33 82 -36 0 -5 -130 -331 -135 -340 -3 -4 -179 61 -192
71 -10 7 -13 56 -13 182 0 96 3 180 6 188 5 13 18 11 87 -10 45 -14 119 -39
165 -55z m-1510 53 c41 -11 76 -21 78 -23 2 -2 -7 -40 -20 -84 -13 -43 -36
-118 -50 -165 l-26 -87 -80 20 c-44 11 -80 25 -80 30 0 8 43 184 71 291 5 20
15 37 22 37 7 0 45 -9 85 -19z m-4145 -153 c21 -84 37 -158 37 -165 0 -10 -97
-40 -104 -32 -2 4 -41 131 -77 256 l-17 62 46 15 c81 24 75 31 115 -136z
m-1606 -120 c36 -92 65 -169 62 -171 -2 -2 -80 -32 -174 -67 -93 -34 -268
-101 -388 -148 l-219 -84 -31 37 c-72 86 -207 270 -204 279 5 15 272 122 662
267 150 55 212 74 217 66 4 -7 38 -87 75 -179z m7590 103 c328 -118 623 -232
623 -241 0 -11 -203 -281 -223 -299 -14 -11 -52 1 -274 87 -142 55 -311 119
-376 143 -93 34 -117 46 -112 58 40 109 132 331 137 331 4 0 105 -35 225 -79z
m1202 -77 l293 -144 -19 -32 c-11 -18 -45 -79 -77 -136 -32 -56 -62 -104 -66
-107 -5 -3 -104 35 -222 83 -117 49 -261 109 -320 132 -65 27 -104 48 -101 54
4 6 39 63 78 126 40 63 79 129 89 147 12 24 21 31 34 26 9 -3 149 -70 311
-149z m-9991 115 c9 -17 54 -89 99 -160 79 -126 81 -130 60 -139 -12 -5 -150
-64 -306 -130 -156 -67 -289 -119 -295 -117 -6 3 -47 67 -90 142 -76 133 -79
138 -60 152 23 18 554 283 566 283 5 0 17 -14 26 -31z m4347 19 c4 -13 25
-322 22 -324 -1 -1 -72 -7 -157 -13 -158 -12 -471 -46 -524 -57 l-30 -6 46 53
c56 66 125 167 172 252 l36 64 118 12 c64 7 155 16 202 20 47 5 91 9 98 10 7
0 14 -5 17 -11z m103 -155 l-3 -168 -31 -3 -31 -3 -7 113 c-4 62 -9 139 -13
171 l-6 57 47 0 46 0 -2 -167z m838 105 c-3 -35 -8 -111 -12 -170 l-6 -108
-39 0 -39 0 0 170 0 170 51 0 51 0 -6 -62z m268 36 c76 -8 145 -14 152 -14 8
0 23 -19 35 -42 36 -72 128 -210 181 -270 27 -32 43 -58 36 -58 -7 0 -83 9
-168 20 -85 11 -233 26 -329 35 -96 8 -175 16 -177 17 -3 4 16 309 21 324 4
12 30 11 249 -12z m-1704 -30 c0 -15 -98 -166 -155 -239 -93 -120 -84 -116
-165 -61 -38 26 -71 55 -74 64 -11 35 -36 165 -33 169 6 6 284 54 420 72 4 1
7 -2 7 -5z m2194 -34 c105 -17 192 -32 194 -34 6 -7 -29 -170 -40 -183 -5 -6
-43 -34 -83 -62 l-74 -50 -51 56 c-76 83 -210 278 -210 306 0 10 -5 10 264
-33z m-2622 -115 c8 -41 12 -75 9 -75 -8 0 -131 123 -131 132 0 8 31 15 76 17
31 1 31 1 46 -74z m2930 56 c4 -4 -21 -36 -57 -71 -36 -35 -65 -58 -65 -51 0
8 5 43 12 78 l12 65 45 -7 c25 -4 49 -10 53 -14z m1605 -48 l202 -67 6 -56 c9
-85 43 -304 51 -323 3 -9 2 -17 -3 -17 -7 0 -307 103 -440 151 -7 3 10 61 48
163 32 88 57 162 54 164 -8 8 -8 7 -64 -149 -30 -81 -56 -151 -60 -157 -8 -14
-93 9 -99 26 -4 14 88 332 97 332 3 0 97 -30 208 -67z m-6007 -15 c12 -40 32
-110 46 -154 13 -45 24 -87 24 -92 0 -13 -107 -49 -116 -40 -6 7 -114 297
-114 309 0 7 104 47 127 48 7 1 22 -32 33 -71z m1394 -45 c114 -110 111 -107
119 -149 l6 -32 -170 -32 c-93 -18 -236 -47 -317 -65 -81 -18 -149 -32 -151
-30 -6 7 -80 260 -81 277 0 9 9 19 20 23 41 13 436 104 454 104 11 1 62 -40
120 -96z m3356 35 c118 -27 217 -52 219 -54 4 -4 -77 -295 -84 -302 -2 -2 -95
17 -207 42 -111 24 -254 54 -317 65 -63 12 -115 22 -117 24 -1 1 2 22 7 47 8
38 20 54 80 105 38 33 83 77 100 98 37 46 9 48 319 -25z m-4868 -129 c31 -85
54 -156 52 -158 -4 -5 -438 -159 -440 -157 -1 0 4 30 12 66 8 36 21 121 29
190 9 68 18 127 21 130 9 9 248 88 259 86 6 -2 35 -72 67 -157z m6673 -38
c121 -44 252 -93 292 -108 l72 -28 -83 -159 c-45 -87 -86 -158 -90 -159 -4 0
-102 35 -216 79 l-209 79 -16 69 c-19 81 -45 257 -45 303 l0 32 38 -13 c20 -8
136 -50 257 -95z m-7059 17 c-7 -84 -44 -289 -55 -306 -8 -14 -412 -173 -422
-166 -9 5 -159 293 -159 304 0 8 609 238 634 239 5 1 6 -31 2 -71z m8095 16
c35 -14 65 -27 67 -29 3 -3 -166 -315 -179 -329 -8 -9 -56 6 -157 50 l-54 24
59 72 c33 40 86 110 118 156 32 45 64 82 70 82 6 0 40 -12 76 -26z m-9319 -27
c15 -23 68 -94 117 -157 49 -63 87 -118 83 -122 -11 -10 -162 -71 -165 -67 -2
2 -32 56 -67 119 -34 63 -76 139 -92 167 l-29 53 53 24 c29 13 58 25 63 25 6
1 22 -18 37 -42z m3299 -45 c-39 -4 -37 -5 -47 32 l-7 28 44 -28 43 -29 -33
-3z m1874 38 c1142 -98 2259 -405 3606 -989 441 -192 519 -231 556 -279 37
-49 44 -101 16 -123 -9 -8 -37 -13 -67 -13 -41 1 -89 18 -236 84 -1559 695
-2683 1017 -3905 1120 -212 18 -748 24 -975 11 -1273 -72 -2489 -423 -3999
-1152 -232 -112 -271 -123 -313 -89 -32 25 -36 62 -14 113 30 67 56 85 286
191 1568 724 2764 1060 4055 1140 121 7 864 -3 990 -14z m791 -6 c-3 -9 -6
-22 -6 -30 0 -9 -11 -14 -35 -14 -43 0 -44 9 -2 37 39 26 51 28 43 7z m3635
-74 c96 -40 175 -73 176 -74 2 -2 -34 -2 -80 -2 -146 1 -238 -50 -306 -173
-19 -33 -41 -61 -48 -61 -7 0 -37 11 -68 25 l-56 24 46 83 c25 46 67 122 93
171 26 48 52 85 58 83 6 -2 89 -36 185 -76z m-9670 -99 c50 -90 87 -166 84
-169 -2 -3 -34 -18 -70 -33 l-64 -27 -14 22 c-8 11 -23 39 -35 61 -49 96 -147
159 -266 171 l-69 7 159 68 c87 37 165 67 172 66 8 -1 54 -76 103 -166z m1921
-60 c22 -73 36 -137 31 -141 -4 -4 -89 -34 -188 -68 -99 -33 -224 -76 -277
-96 -54 -19 -100 -31 -102 -27 -12 18 -96 244 -96 256 0 16 30 28 520 198 25
9 51 15 59 14 9 -1 28 -51 53 -136z m5778 70 c362 -122 380 -129 380 -159 0
-28 -88 -262 -99 -262 -4 0 -85 27 -181 61 -96 34 -224 77 -285 96 -60 19
-111 36 -112 37 -5 4 84 296 89 296 2 0 96 -31 208 -69z m1225 -46 c39 -16 74
-31 78 -35 11 -9 -260 -270 -280 -270 -31 0 -154 52 -151 64 2 6 38 80 81 163
l78 152 62 -23 c34 -13 94 -36 132 -51z m-8200 -98 c43 -82 74 -152 69 -156
-5 -4 -44 -22 -87 -39 l-77 -31 -63 51 c-67 55 -217 204 -217 216 0 10 284
121 291 113 4 -3 42 -73 84 -154z m-1014 111 c53 -17 113 -62 141 -105 33 -50
401 -744 396 -748 -9 -8 -90 -46 -93 -43 -2 2 -78 143 -170 313 -215 401 -241
429 -403 430 l-84 1 -34 57 c-20 31 -33 61 -29 67 20 33 207 52 276 28z
m10192 -11 l38 -16 -32 -59 -33 -58 -78 4 c-69 4 -84 2 -133 -22 -32 -16 -69
-45 -89 -69 -18 -23 -107 -181 -196 -352 -90 -170 -165 -312 -167 -314 -2 -3
-26 6 -53 20 l-49 24 194 365 c106 201 210 385 231 409 21 24 60 55 88 68 45
21 62 24 146 20 58 -2 110 -10 133 -20z m-5253 -207 l0 -200 -132 0 c-73 0
-200 -5 -282 -10 -82 -5 -151 -9 -152 -7 -5 4 -35 389 -31 393 6 7 291 21 450
23 l147 1 0 -200z m528 181 c51 -4 94 -10 97 -12 4 -5 -25 -381 -31 -388 -2
-2 -82 2 -178 8 -97 6 -225 11 -286 11 l-110 0 0 202 0 201 208 -7 c114 -4
249 -11 300 -15z m-1127 -202 c9 -107 16 -195 15 -196 -1 -1 -83 -11 -182 -22
-98 -11 -224 -27 -279 -35 -54 -8 -101 -13 -103 -11 -6 5 -65 385 -61 389 11
11 557 78 584 72 6 -2 17 -89 26 -197z m1569 155 c273 -35 270 -34 270 -53 0
-16 -45 -300 -55 -352 l-6 -25 -117 18 c-64 9 -191 26 -282 36 l-165 18 1 40
c1 21 7 110 14 198 l13 158 66 -6 c36 -4 154 -18 261 -32z m3615 -55 c96 -40
175 -74 175 -78 -1 -15 -168 -316 -176 -316 -5 0 -111 42 -237 94 l-227 94 42
35 c24 19 88 81 143 138 55 57 101 103 103 104 2 0 81 -32 177 -71z m-8839
-47 c55 -54 119 -115 143 -135 39 -32 42 -37 25 -43 -10 -4 -107 -45 -215 -90
-108 -46 -202 -84 -208 -86 -11 -3 -188 309 -179 317 4 5 322 134 329 135 4 0
51 -44 105 -98z m3029 46 c3 -13 18 -101 33 -196 l29 -172 -21 -5 c-12 -2 -75
-14 -141 -25 -66 -12 -182 -35 -258 -51 -77 -17 -141 -29 -143 -27 -4 4 -94
367 -94 379 0 9 133 40 365 85 210 40 223 41 230 12z m5065 -115 c107 -41 198
-78 203 -82 12 -12 -148 -102 -235 -131 -46 -16 -103 -30 -128 -32 l-45 -3
-51 101 c-42 84 -104 249 -104 276 0 8 78 -20 360 -129z m-7260 118 c0 -5 -14
-49 -31 -98 -44 -125 -110 -254 -134 -263 -24 -9 -108 3 -179 26 -102 33 -234
110 -217 127 11 11 530 216 549 217 6 0 12 -4 12 -9z m4903 -26 c293 -55 367
-74 367 -93 -1 -21 -86 -362 -93 -368 -2 -3 -65 9 -138 25 -74 16 -197 41
-273 55 -77 14 -142 28 -145 31 -5 5 44 327 55 368 7 23 15 22 227 -18z
m-4807 -95 c26 -66 46 -122 43 -124 -7 -7 -213 -86 -216 -82 -2 1 14 41 36 87
22 46 50 119 63 161 12 43 24 78 25 78 0 0 23 -54 49 -120z m6867 -167 c15
-29 25 -53 22 -53 -9 0 -200 73 -208 80 -4 3 9 46 29 96 20 49 41 100 46 114
9 23 14 15 47 -80 21 -58 50 -129 64 -157z m-5334 5 c24 -101 45 -188 48 -194
2 -6 -30 -18 -74 -28 -43 -10 -165 -43 -271 -72 -107 -30 -195 -54 -197 -54
-10 0 -126 373 -119 380 8 7 232 71 474 134 101 26 90 39 139 -166z m3896 117
c302 -78 335 -88 335 -100 0 -8 -119 -362 -125 -372 0 -1 -70 17 -155 41 -85
23 -206 55 -267 71 -89 21 -113 31 -113 44 0 16 74 328 85 359 2 6 10 12 17
12 7 0 108 -25 223 -55z m2205 -141 l110 -46 -70 -136 c-39 -74 -68 -137 -65
-140 7 -8 7 -8 79 136 75 149 61 141 162 96 l55 -24 -63 -118 c-35 -65 -70
-128 -78 -141 l-15 -22 -205 89 c-113 49 -270 115 -348 148 -103 42 -139 60
-125 65 10 4 53 19 96 34 43 15 119 53 170 85 l92 58 47 -19 c26 -10 97 -39
158 -65z m-8301 36 c69 -47 163 -91 244 -115 32 -9 57 -18 55 -20 -13 -13
-502 -214 -509 -209 -5 3 -39 63 -74 134 l-64 128 142 60 c78 33 143 61 145
61 1 1 29 -17 61 -39z m1627 -179 l61 -189 -56 -16 c-31 -9 -150 -47 -265 -86
-116 -38 -211 -68 -212 -67 -14 13 -152 362 -147 368 12 11 515 178 538 178
18 1 28 -24 81 -188z m5094 104 c242 -79 290 -96 290 -103 0 -4 -34 -89 -76
-188 l-77 -182 -146 49 c-80 27 -200 66 -266 86 -66 20 -121 37 -122 38 -2 1
103 323 122 372 5 14 24 9 275 -72z m-2501 19 l62 -7 -5 -66 c-3 -36 -8 -123
-12 -193 l-6 -128 -258 0 c-226 0 -259 2 -264 16 -3 9 -6 96 -6 194 0 177 0
179 23 183 36 7 399 8 466 1z m-505 -50 c3 -26 6 -115 6 -199 l0 -152 -137 -7
c-76 -3 -199 -13 -273 -21 -74 -8 -135 -13 -137 -11 -5 5 -46 386 -42 390 8 9
381 41 505 44 l71 2 7 -46z m831 31 c177 -15 336 -33 344 -40 4 -5 -47 -376
-53 -382 -2 -3 -78 3 -168 12 -89 9 -215 19 -278 23 l-115 7 2 40 c1 22 5 111
9 198 l6 157 37 0 c20 0 117 -7 216 -15z m-4840 -145 c36 -71 65 -133 65 -137
0 -8 -141 -75 -146 -70 -8 8 -145 269 -142 271 8 6 144 64 150 65 5 1 37 -57
73 -129z m3430 -87 l20 -192 -25 -5 c-14 -3 -61 -10 -105 -16 -44 -6 -147 -23
-229 -36 -81 -14 -152 -22 -156 -17 -8 10 -75 372 -69 378 12 12 461 84 509
82 l35 -2 20 -192z m1965 166 c261 -40 350 -60 350 -78 0 -25 -66 -360 -72
-366 -3 -3 -66 5 -139 19 -74 13 -186 32 -249 41 -63 9 -120 18 -126 19 -7 3
-2 67 17 197 15 107 28 194 28 195 2 1 70 -8 191 -27z m-4039 -215 c41 -97 75
-180 77 -183 1 -4 -39 -22 -90 -40 -51 -18 -167 -62 -256 -97 -90 -35 -168
-64 -173 -64 -14 0 -182 341 -172 351 12 12 508 207 529 208 6 1 44 -78 85
-175z m6166 107 c247 -91 353 -132 353 -137 0 -2 -40 -85 -90 -184 l-90 -180
-52 21 c-29 12 -138 52 -243 90 -104 38 -200 74 -212 79 -21 9 -21 11 43 162
36 84 72 168 79 186 8 17 16 32 19 32 2 0 89 -31 193 -69z m-4640 -131 c18
-96 32 -183 33 -192 0 -12 -15 -20 -57 -28 -32 -6 -152 -34 -267 -61 -115 -27
-210 -48 -211 -46 -1 1 -25 86 -52 190 l-50 187 49 15 c41 12 131 33 443 104
80 18 75 25 112 -169z m3041 140 c152 -34 401 -96 407 -102 4 -3 -93 -369 -99
-375 -2 -2 -75 14 -162 36 -87 21 -207 49 -266 62 -82 17 -108 26 -108 38 0
15 53 296 65 349 3 12 10 22 16 22 6 0 72 -14 147 -30z m-3608 -284 c28 -103
50 -189 48 -191 -2 -2 -47 -15 -100 -29 -53 -14 -163 -46 -244 -71 -81 -25
-149 -43 -151 -41 -10 10 -123 351 -119 361 2 6 59 28 127 50 144 45 383 113
386 111 1 -1 25 -87 53 -190z m4324 95 c124 -37 229 -70 231 -73 4 -4 -112
-355 -121 -367 -2 -2 -88 22 -191 52 -103 31 -216 64 -251 73 -48 13 -61 21
-58 33 12 39 96 353 96 358 0 10 66 -7 294 -76z m1566 -88 c124 -52 228 -97
232 -101 3 -4 -36 -83 -87 -177 -70 -127 -99 -170 -112 -169 -15 2 -511 200
-521 209 -2 2 38 84 87 184 l91 181 43 -17 c23 -9 143 -59 267 -110z m-7401
-58 c47 -96 83 -176 80 -178 -2 -2 -119 -52 -259 -111 -140 -60 -258 -110
-262 -112 -5 -4 -188 324 -188 338 0 8 517 236 535 237 6 0 48 -78 94 -174z
m3756 75 c1076 -50 2159 -341 3675 -985 280 -119 285 -122 316 -162 36 -48 43
-111 15 -137 -41 -37 -94 -25 -287 64 -1283 591 -2333 898 -3404 997 -270 25
-904 25 -1170 0 -1105 -103 -2175 -425 -3431 -1031 -103 -49 -132 -55 -167
-30 -17 12 -22 25 -22 63 0 55 40 125 87 152 42 25 538 235 783 332 1409 557
2531 787 3605 737z m-2769 -185 c34 -99 62 -180 61 -181 -1 0 -91 -31 -200
-68 -108 -36 -226 -77 -262 -90 l-64 -25 -30 72 c-16 40 -50 120 -75 180 l-45
107 32 14 c18 7 112 41 208 75 95 34 197 71 224 81 84 32 81 36 151 -165z
m5239 131 c72 -24 189 -64 262 -91 123 -44 131 -48 124 -68 -27 -70 -135 -323
-142 -331 -4 -4 -111 28 -239 73 -127 44 -237 81 -245 81 -8 0 -17 5 -20 10
-7 11 114 370 124 370 4 0 65 -20 136 -44z m1647 -167 c112 -51 205 -93 207
-95 5 -5 -191 -344 -200 -344 -4 0 -83 33 -176 74 -92 40 -185 81 -206 90
l-39 16 30 52 c16 29 60 108 97 176 36 67 70 122 75 122 5 0 100 -41 212 -91z
m-8462 -26 c29 -54 70 -130 91 -168 l38 -70 -182 -84 c-100 -46 -187 -85 -193
-88 -10 -3 -201 313 -198 326 2 7 366 180 380 181 6 0 34 -44 64 -97z m1021
-122 c38 -90 69 -169 69 -175 0 -7 -17 -18 -37 -25 -21 -8 -134 -51 -252 -98
-118 -46 -218 -82 -223 -81 -10 4 -158 314 -158 332 0 6 19 19 43 28 23 9 137
55 252 102 116 47 216 85 223 83 8 -1 45 -76 83 -166z m6474 66 c127 -49 232
-92 235 -94 7 -7 -164 -343 -176 -343 -6 0 -109 38 -230 84 -120 46 -227 86
-236 89 -15 5 -12 19 28 114 25 59 59 141 76 181 27 64 33 72 52 66 11 -3 125
-47 251 -97z m522 -212 c136 -58 252 -110 257 -115 5 -5 -28 -76 -79 -172 -49
-90 -89 -164 -90 -166 -1 -2 -110 42 -241 96 -132 55 -249 102 -261 106 -13 4
-23 12 -23 17 0 21 166 339 177 339 6 0 123 -47 260 -105z m-7536 -76 c43 -90
74 -167 71 -170 -8 -7 -437 -189 -463 -196 -17 -5 -27 12 -139 220 l-52 97 69
32 c237 109 419 187 427 185 6 -2 45 -77 87 -168z m7902 -82 l67 -32 -96 -167
-95 -168 -35 15 c-19 8 -50 22 -69 30 -19 8 -35 18 -35 21 0 7 128 245 162
302 11 17 23 32 26 31 4 0 37 -15 75 -32z m-8433 -94 c34 -65 74 -137 87 -160
l24 -42 -30 -16 c-81 -42 -70 -50 -167 118 -48 84 -89 155 -91 160 -4 6 91 57
108 57 3 0 34 -53 69 -117z"/>
<path d="M8434 17901 c-30 -18 -51 -62 -39 -81 4 -6 19 -10 34 -10 38 0 74 39
69 76 -4 36 -24 40 -64 15z"/>
<path d="M8742 17908 c-18 -18 -15 -33 14 -67 27 -33 77 -43 87 -18 8 21 -22
73 -49 86 -31 14 -37 14 -52 -1z"/>
<path d="M1879 14950 c-365 -362 -549 -774 -566 -1270 -8 -255 31 -492 122
-735 32 -86 125 -282 153 -323 5 -8 7 52 4 144 -3 94 0 196 7 253 12 90 11
103 -14 221 -31 153 -42 327 -26 430 14 90 83 350 93 350 18 0 -7 -217 -46
-395 -10 -44 -15 -116 -15 -195 l1 -125 13 113 c21 177 51 298 136 546 95 275
108 323 124 441 l11 90 22 -90 c40 -169 53 -399 33 -560 -5 -33 -7 -61 -6 -63
9 -11 38 86 59 198 24 128 54 246 60 238 4 -4 -22 -266 -29 -298 -5 -19 19 0
95 75 120 119 118 77 26 397 -75 262 -102 388 -119 558 l-12 125 -126 -125z"/>
<path d="M15185 15008 c-4 -24 -18 -92 -32 -153 -25 -112 -25 -116 -7 -293 8
-76 -6 -117 -71 -216 -55 -85 -65 -118 -65 -226 l1 -85 86 -58 86 -59 -6 44
c-4 24 -9 77 -12 118 -3 41 -8 86 -11 100 -4 16 -2 21 4 15 11 -11 55 -193 73
-300 6 -38 20 -86 30 -105 l18 -35 -7 50 c-4 28 -7 129 -7 225 0 173 17 316
50 410 12 34 12 33 19 -40 9 -102 35 -198 111 -411 95 -266 126 -391 154 -624
8 -68 9 -66 10 50 0 86 -5 147 -20 215 -37 173 -62 396 -43 377 9 -8 54 -161
81 -272 28 -113 24 -326 -9 -500 -32 -169 -51 -455 -37 -564 5 -41 10 -76 12
-77 5 -5 133 206 177 291 66 130 74 168 75 355 1 146 4 183 34 325 54 266 46
370 -37 467 -65 76 -95 149 -146 354 -25 99 -56 205 -69 236 -36 80 -90 136
-167 170 -76 34 -112 66 -184 163 -76 102 -83 105 -91 53z"/>
<path d="M3110 14601 c-385 -179 -683 -382 -930 -630 -349 -352 -520 -728
-520 -1146 0 -195 37 -384 109 -554 l27 -66 -106 -105 c-582 -576 -669 -1387
-225 -2093 30 -49 55 -91 55 -94 0 -3 -23 -43 -51 -89 -156 -260 -235 -523
-246 -825 -8 -240 19 -431 93 -656 103 -310 299 -635 537 -890 l58 -62 -44
-88 c-100 -200 -139 -363 -140 -588 -1 -157 9 -235 50 -400 67 -270 221 -580
445 -896 l89 -125 67 17 c37 10 80 18 95 18 l29 1 -31 38 c-152 180 -221 302
-368 651 -4 9 -2 12 4 8 27 -17 157 -226 227 -365 70 -138 174 -297 208 -318
9 -6 8 -1 -3 16 -98 151 -216 383 -272 538 -104 284 -158 553 -156 775 1 95 3
107 11 77 102 -339 175 -509 371 -862 76 -137 160 -294 187 -350 27 -57 49
-99 49 -94 2 25 -48 167 -111 315 -81 190 -140 350 -136 363 5 15 163 -308
201 -412 20 -52 50 -157 69 -232 l33 -137 45 -6 c25 -4 99 -20 166 -36 66 -16
124 -29 128 -29 10 0 -2 161 -20 270 -34 199 -154 475 -312 715 -77 118 -233
328 -473 635 -126 162 -286 394 -308 448 -12 29 -10 39 22 119 83 204 116 370
124 609 12 366 -64 753 -232 1179 -77 196 -216 474 -315 631 -12 20 -7 32 67
140 231 342 365 624 420 884 12 59 18 129 18 230 0 168 -12 233 -85 480 -76
258 -120 447 -120 516 0 15 27 42 95 93 340 256 592 537 732 816 88 176 135
335 218 743 60 296 104 454 166 602 38 88 102 214 137 268 8 12 10 22 6 21 -5
0 -74 -31 -154 -68z m-342 -638 c-26 -171 -102 -348 -212 -493 -35 -47 -118
-146 -184 -220 -66 -74 -118 -137 -116 -139 2 -2 12 3 21 11 34 30 270 134
281 124 10 -10 -123 -101 -222 -153 -156 -81 -225 -152 -306 -316 -33 -67 -75
-169 -94 -226 -41 -129 -50 -115 -41 67 9 185 22 284 61 481 56 280 124 464
234 627 62 91 170 227 176 221 8 -8 -70 -168 -131 -267 -106 -173 -129 -214
-162 -293 -40 -95 -41 -107 -6 -47 70 118 237 303 398 441 87 74 297 239 305
239 4 0 3 -26 -2 -57z m-985 -2293 c44 -180 47 -436 9 -615 -11 -49 -23 -103
-26 -120 -3 -16 3 -5 15 25 11 30 36 127 55 215 35 164 82 331 90 323 2 -3 -5
-74 -16 -159 -27 -218 -81 -393 -170 -555 -36 -65 -112 -291 -171 -506 -13
-49 -27 -88 -30 -88 -10 0 -46 156 -60 255 -6 44 -19 121 -30 170 -11 50 -22
140 -25 200 -8 133 8 226 67 400 l40 120 -5 -110 c-3 -76 -13 -139 -31 -205
-21 -74 -27 -124 -30 -225 l-4 -130 14 104 c21 159 56 279 154 528 90 231 121
337 121 414 0 57 13 40 33 -41z m-199 -2477 c33 -125 80 -242 186 -463 124
-260 134 -284 166 -405 23 -88 24 -89 18 -30 -7 69 -11 89 -53 247 -28 107
-53 291 -37 277 14 -13 104 -289 116 -355 25 -138 -20 -768 -60 -842 -3 -8
-19 44 -35 115 -43 197 -132 388 -305 653 -105 162 -197 320 -186 320 7 0 140
-177 206 -275 30 -44 85 -138 122 -210 37 -71 68 -127 68 -123 0 11 -78 252
-169 519 -97 285 -130 413 -137 539 -6 95 8 194 36 265 12 29 13 25 30 -70 10
-55 25 -128 34 -162z"/>
<path d="M13959 14588 c16 -35 43 -112 61 -173 42 -143 72 -206 127 -263 100
-104 118 -158 133 -396 15 -234 23 -258 142 -435 39 -56 83 -131 99 -165 29
-62 59 -189 59 -248 0 -54 33 -101 171 -244 123 -128 139 -148 163 -212 34
-89 78 -130 251 -238 l122 -77 9 -81 c14 -141 11 -169 -28 -233 -56 -91 -76
-136 -102 -226 -40 -138 -47 -219 -34 -380 9 -116 9 -166 -2 -260 -17 -147 -9
-176 89 -333 91 -147 105 -175 146 -300 40 -121 83 -208 172 -343 l63 -95 -36
-96 c-46 -119 -64 -144 -122 -173 -70 -34 -104 -109 -137 -297 -34 -191 -63
-273 -130 -370 -73 -108 -79 -133 -76 -328 2 -193 -7 -249 -60 -383 -36 -89
-41 -112 -42 -183 0 -94 11 -141 60 -250 23 -50 45 -126 60 -205 15 -75 37
-152 55 -189 l29 -63 -31 -77 c-73 -175 -105 -219 -190 -262 -94 -47 -146
-114 -250 -324 -97 -195 -157 -281 -229 -331 -25 -16 -75 -60 -112 -96 -76
-74 -125 -167 -177 -329 -133 -417 -127 -392 -127 -542 0 -75 3 -139 7 -143 3
-4 49 7 101 24 51 16 123 35 159 42 l66 12 17 86 c29 147 101 347 191 530 47
95 87 171 90 169 7 -8 -51 -166 -126 -343 -58 -138 -130 -339 -130 -363 0 -4
33 61 74 143 40 83 116 227 169 322 187 334 272 524 341 762 20 69 39 127 41
130 13 12 3 -230 -15 -347 -47 -323 -170 -670 -336 -949 -69 -115 -73 -123
-50 -104 37 31 106 141 177 280 68 137 190 333 223 360 18 15 -76 -206 -146
-342 -48 -93 -140 -229 -195 -288 l-24 -26 63 -6 c35 -3 77 -9 94 -13 29 -5
34 -2 62 38 17 25 63 73 102 108 148 132 272 340 310 521 10 52 24 133 30 181
6 48 32 159 59 246 62 201 74 262 70 355 -4 62 -9 80 -34 116 -62 88 -76 122
-115 269 -21 83 -47 166 -56 183 -18 36 -36 12 161 219 120 125 153 178 225
360 47 120 74 169 125 230 82 98 107 182 125 425 6 83 22 198 36 258 29 128
26 160 -35 352 -48 148 -60 218 -60 333 1 71 -3 91 -29 145 -17 34 -62 98
-101 142 -39 44 -71 85 -71 90 0 6 16 27 36 46 79 76 128 183 194 426 22 82
58 195 79 253 57 153 74 250 69 384 -6 127 -25 190 -88 283 -48 73 -61 107
-105 272 -41 157 -82 239 -139 283 -67 52 -125 109 -184 183 -30 39 -75 91
-100 116 -43 46 -44 48 -37 96 3 27 22 88 42 134 74 177 76 183 64 285 -6 63
-6 136 1 226 13 170 6 281 -20 340 -11 25 -42 70 -70 101 -67 74 -93 121 -158
284 -84 211 -120 264 -227 331 -89 56 -152 113 -256 232 -181 206 -229 237
-469 305 -164 46 -291 100 -350 150 l-31 26 28 -63z m702 -752 c224 -208 350
-357 446 -525 24 -41 43 -73 43 -69 0 25 -66 180 -140 328 -86 173 -147 317
-137 326 2 3 41 -52 86 -120 159 -242 215 -406 265 -767 13 -96 27 -222 31
-282 7 -100 -2 -364 -11 -354 -3 3 -13 40 -24 83 -26 112 -75 246 -122 335
-56 110 -127 183 -238 248 -84 50 -207 148 -197 158 9 8 194 -85 241 -121 l49
-38 -24 34 c-13 18 -69 94 -125 168 -174 230 -252 382 -287 561 -22 107 -29
179 -19 179 5 0 78 -65 163 -144z m889 -2394 c7 -31 34 -138 61 -237 62 -228
88 -362 98 -511 8 -114 8 -116 11 -44 5 105 1 160 -16 275 -8 56 -14 147 -12
205 l3 105 30 -135 c26 -119 30 -154 30 -295 0 -143 -3 -176 -33 -315 -60
-281 -82 -375 -91 -388 -5 -9 -19 42 -36 135 -48 260 -75 373 -120 507 -24 72
-53 176 -64 231 -19 95 -42 323 -40 410 1 96 35 -69 64 -315 9 -74 22 -160 30
-190 8 -30 13 -41 10 -24 -40 298 -29 543 36 764 l13 45 7 -83 c4 -45 13 -108
19 -140z m151 -2105 c19 -84 17 -244 -5 -347 -10 -47 -80 -272 -157 -501 -76
-229 -139 -420 -139 -425 0 -4 30 52 68 126 37 74 91 171 121 215 72 107 214
295 219 290 7 -6 -80 -154 -188 -320 -195 -300 -270 -468 -320 -719 -15 -72
-22 -63 -45 54 -16 83 -31 286 -42 547 -6 163 8 243 77 427 42 114 49 126 49
91 1 -67 -18 -174 -54 -305 -18 -69 -36 -152 -39 -185 l-6 -60 23 85 c29 106
69 202 190 455 111 234 159 371 190 541 24 138 33 143 58 31z"/>
<path d="M3655 13842 c-149 -53 -263 -101 -408 -173 -170 -85 -277 -148 -277
-163 0 -28 -80 -296 -108 -365 -17 -41 -30 -76 -29 -77 5 -5 267 119 342 162
94 54 197 130 278 203 31 29 57 47 57 39 0 -8 -18 -52 -41 -98 -33 -69 -57
-101 -132 -176 -94 -93 -188 -159 -547 -384 -84 -52 -168 -109 -188 -127 l-37
-32 120 48 c66 26 154 57 195 69 86 25 303 73 308 68 6 -7 -161 -66 -325 -115
-92 -27 -207 -66 -255 -86 -75 -32 -95 -45 -138 -95 -54 -62 -239 -231 -336
-306 l-59 -46 50 7 c960 128 1568 699 1655 1554 13 129 13 131 -2 131 -7 0
-62 -17 -123 -38z"/>
<path d="M13361 13828 c6 -22 32 -89 59 -147 61 -133 66 -161 45 -248 -14 -57
-15 -80 -6 -129 25 -139 132 -285 258 -352 79 -42 106 -73 176 -208 32 -61 69
-121 81 -133 13 -12 58 -35 101 -51 87 -32 114 -50 235 -150 46 -39 109 -83
139 -97 51 -25 63 -27 166 -25 113 3 153 -5 370 -67 61 -17 67 -18 45 -3 -96
66 -126 99 -175 197 -42 84 -56 103 -90 122 -88 50 -254 116 -398 159 -171 51
-358 116 -352 122 5 6 191 -34 298 -64 106 -30 209 -70 320 -125 45 -23 78
-37 72 -31 -17 17 -244 165 -415 272 -368 229 -486 331 -559 482 -23 46 -41
90 -41 97 0 7 39 -21 88 -62 157 -134 217 -169 615 -355 139 -66 140 -50 7 76
-96 90 -121 125 -65 88 65 -43 125 -75 125 -67 0 5 -45 77 -100 161 -61 93
-106 173 -116 205 -15 53 -15 53 -82 78 -37 13 -93 32 -124 41 -31 9 -90 39
-133 69 -157 107 -158 108 -260 101 l-90 -5 -93 45 c-51 25 -97 46 -102 46 -4
0 -4 -19 1 -42z"/>
<path d="M4050 10478 c0 -2005 4 -3237 10 -3347 62 -1067 499 -2030 1268
-2797 739 -738 1695 -1192 2772 -1320 179 -21 691 -30 875 -15 924 75 1760
387 2471 922 255 192 577 499 765 729 508 620 832 1342 938 2085 51 360 48
-17 44 4308 l-3 2607 -4570 0 -4570 0 0 -3172z m4380 832 l0 -2040 -2035 0
-2035 0 0 2040 0 2040 2035 0 2035 0 0 -2040z m4450 0 l0 -2040 -2035 0 -2035
0 0 2040 0 2040 2035 0 2035 0 0 -2040z m-4013 -2511 c221 -69 478 -273 752
-599 195 -233 517 -680 498 -692 -6 -4 -33 -8 -58 -8 -63 0 -219 -41 -302 -78
-37 -17 -67 -33 -67 -35 0 -3 33 6 73 18 119 38 241 56 417 62 147 5 174 3
250 -16 168 -42 280 -112 425 -262 136 -141 264 -317 427 -589 68 -113 238
-418 238 -426 0 -2 -1305 -4 -2900 -4 l-2900 0 26 73 c62 171 210 452 347 657
342 512 712 841 1062 946 121 36 308 38 461 6 107 -23 281 -80 347 -114 69
-35 49 -13 -27 30 -91 50 -175 87 -285 122 l-83 28 44 30 c75 52 179 171 308
357 180 257 292 370 445 448 150 76 347 94 502 46z m-80 -3218 c120 -31 230
-75 507 -206 326 -152 399 -177 537 -183 135 -5 192 9 485 118 292 110 375
131 541 137 206 8 360 -15 804 -123 238 -57 324 -74 532 -101 l58 -8 -77 -115
c-42 -63 -97 -141 -121 -173 -43 -56 -46 -57 -81 -51 -86 14 -270 56 -462 104
-279 69 -402 91 -555 97 -164 7 -227 -7 -516 -118 -281 -107 -370 -130 -539
-136 -217 -9 -364 29 -664 169 -434 203 -517 235 -621 244 -95 9 -203 -29
-515 -181 -406 -197 -527 -232 -772 -222 -166 6 -261 30 -573 142 -324 117
-374 129 -520 129 -155 -1 -274 -23 -692 -129 -183 -47 -343 -85 -357 -85 -18
0 -39 22 -98 108 -104 148 -152 222 -147 226 2 1 45 8 94 15 50 7 240 50 423
97 571 144 770 168 1012 118 94 -20 189 -50 414 -131 400 -143 509 -157 715
-87 42 14 200 86 351 159 370 179 493 218 665 211 50 -2 127 -14 172 -25z m33
-730 c119 -27 240 -69 505 -176 501 -203 546 -205 1010 -55 470 151 637 157
1217 40 136 -28 250 -50 254 -50 14 0 -42 -53 -168 -160 l-126 -108 -91 19
c-169 34 -375 61 -481 61 -134 0 -202 -14 -489 -107 -315 -101 -411 -119 -611
-112 -220 8 -303 31 -722 200 -362 147 -464 171 -593 143 -100 -22 -182 -52
-415 -151 -357 -152 -497 -189 -715 -188 -167 1 -299 28 -623 127 -134 41
-280 83 -325 93 -145 31 -353 18 -632 -41 l-110 -24 -110 93 c-60 51 -127 111
-148 132 l-38 39 193 42 c341 73 479 92 667 92 189 0 314 -25 631 -125 293
-93 362 -108 500 -108 147 0 221 19 435 109 576 244 717 275 985 215z m30
-701 c58 -11 253 -70 433 -130 551 -184 591 -187 1037 -65 369 102 503 120
743 103 78 -5 144 -11 146 -14 8 -8 -34 -33 -209 -123 -234 -120 -359 -169
-580 -230 -285 -77 -338 -86 -545 -85 -229 0 -298 15 -745 164 -346 116 -469
146 -554 135 -90 -11 -236 -54 -447 -130 -377 -136 -506 -165 -729 -165 -174
0 -302 21 -605 100 -255 67 -300 83 -495 181 -197 98 -314 165 -301 173 6 4
93 10 194 13 224 7 329 -7 607 -79 376 -98 428 -109 560 -115 183 -8 217 0
704 172 359 126 533 147 786 95z"/>
<path d="M4842 11633 l3 -1408 23 -60 c31 -81 85 -158 141 -199 122 -89 160
-96 551 -106 369 -9 416 -16 570 -92 83 -41 185 -127 237 -202 l20 -29 22 36
c38 62 146 154 225 192 41 20 119 48 173 62 92 24 119 26 423 33 242 6 339 12
379 24 161 45 258 134 313 288 l23 63 3 1403 2 1402 -1555 0 -1555 0 2 -1407z
m2816 7 c2 -783 -1 -1145 -8 -1192 -27 -162 -121 -271 -275 -318 -25 -8 -152
-15 -335 -20 -204 -6 -316 -13 -363 -24 -140 -32 -232 -92 -275 -179 l-19 -39
-17 46 c-22 57 -81 109 -154 136 -115 43 -187 52 -487 60 -256 7 -297 10 -347
28 -85 31 -145 76 -188 144 -73 112 -70 59 -70 1343 l0 1145 1268 -2 1267 -3
3 -1125z"/>
<path d="M6578 12572 c-36 -10 -90 -33 -120 -52 -47 -29 -63 -34 -138 -38
-101 -5 -110 -12 -110 -93 0 -42 5 -63 20 -80 12 -15 19 -18 18 -9 -4 23 42
23 78 1 17 -10 36 -33 42 -50 10 -28 9 -31 -11 -33 -37 -2 -71 3 -83 13 -7 6
-16 4 -24 -6 -17 -21 -25 -101 -11 -109 6 -4 11 -1 11 6 0 8 5 6 11 -4 14 -25
38 -23 32 2 -7 27 18 26 44 -2 35 -40 35 -65 -2 -103 -40 -43 -46 -41 -136 34
-37 31 -110 80 -163 110 -139 79 -204 133 -227 189 -50 119 -77 143 -161 141
-33 0 -38 -2 -23 -9 18 -8 17 -9 -6 -9 -15 -1 -37 -10 -50 -22 l-24 -20 27 5
c28 6 58 -1 58 -14 0 -5 -13 -11 -30 -15 -16 -4 -37 -16 -45 -28 -18 -26 -20
-46 -3 -29 7 7 21 12 32 12 18 0 18 -1 3 -18 -19 -20 -22 -42 -8 -42 6 0 13 5
16 10 14 23 37 6 60 -45 15 -35 33 -59 49 -67 14 -6 26 -18 26 -26 0 -17 63
-82 80 -82 10 0 10 3 0 15 -6 8 -10 20 -8 26 2 6 75 -57 161 -141 115 -111
155 -156 147 -165 -12 -15 -65 -31 -155 -46 -44 -7 -102 -28 -156 -55 -47 -23
-142 -66 -210 -94 -68 -29 -132 -59 -141 -67 -26 -23 -41 -79 -32 -121 4 -22
9 -30 11 -19 6 25 16 21 33 -15 20 -43 38 -47 32 -8 -5 38 2 38 40 0 38 -39
51 -38 43 2 -6 27 -5 30 11 23 79 -31 101 -30 71 3 -10 10 -17 23 -17 29 0 19
37 43 68 43 38 0 82 16 82 30 0 5 -12 10 -27 10 -53 0 -7 19 132 54 114 28
265 56 304 56 4 0 14 -19 22 -42 12 -40 13 -41 17 -15 2 15 7 27 12 27 17 0
50 -87 50 -132 0 -38 4 -46 25 -56 14 -7 35 -28 46 -47 17 -28 27 -35 53 -35
37 0 126 -28 126 -40 0 -22 -139 -132 -238 -188 -113 -64 -170 -114 -138 -120
26 -5 19 -36 -30 -138 -31 -66 -62 -113 -98 -150 -29 -30 -49 -54 -44 -54 4 0
8 -4 8 -10 0 -20 -49 -40 -109 -44 -68 -3 -108 -25 -123 -65 -6 -19 -5 -22 7
-17 13 4 14 -1 9 -34 -7 -41 9 -58 19 -20 7 28 22 25 23 -5 1 -14 5 -33 8 -42
6 -14 10 -11 26 15 24 39 52 47 141 38 102 -9 119 -3 119 45 0 43 2 44 32 28
27 -15 31 -7 13 27 -8 16 -15 34 -15 40 0 19 129 227 163 262 46 49 96 79 199
118 49 19 92 34 94 34 2 0 4 -11 4 -25 0 -36 25 -83 69 -128 44 -47 74 -64
141 -78 40 -9 53 -16 61 -36 18 -48 9 -78 -48 -166 -48 -75 -62 -89 -95 -99
-41 -12 -45 -17 -26 -36 22 -22 -2 -25 -88 -12 l-87 14 -28 -32 c-27 -30 -40
-82 -20 -82 5 0 12 -15 15 -32 l7 -33 14 25 14 25 1 -25 c0 -14 7 -33 14 -42
14 -18 27 -24 25 -10 -8 48 20 58 125 42 91 -14 124 -3 140 48 9 26 14 30 24
20 9 -9 12 -4 12 25 0 44 38 122 107 222 51 74 77 90 88 55 12 -38 27 -6 33
68 6 87 -9 134 -72 226 -25 37 -46 74 -46 82 0 29 30 72 71 102 48 36 99 93
125 142 13 25 18 56 19 111 0 72 -3 82 -55 190 -51 106 -55 119 -54 184 1 113
53 200 123 207 19 2 36 9 39 16 2 7 -2 10 -12 6 -9 -4 -16 -1 -16 6 0 7 8 10
18 8 40 -11 57 18 79 137 3 17 12 37 19 46 20 23 27 70 15 102 -9 24 -16 28
-43 25 -17 -2 -33 -9 -36 -16 -2 -7 2 -11 10 -10 9 2 13 -8 13 -31 0 -31 -5
-38 -55 -67 -71 -41 -89 -63 -97 -110 -4 -29 -21 -55 -63 -101 -78 -83 -112
-155 -118 -248 -6 -91 2 -135 30 -170 19 -25 22 -26 28 -10 5 15 12 11 40 -25
59 -74 69 -165 29 -254 -17 -37 -27 -32 -41 20 -16 60 -46 88 -121 116 -48 18
-78 39 -134 94 -70 68 -73 74 -73 118 0 33 5 49 18 57 12 8 17 20 14 39 -3 23
1 29 26 38 41 14 89 67 120 132 17 38 27 49 30 37 8 -38 27 -8 30 49 3 48 8
64 30 87 l26 27 -22 16 c-29 20 -28 52 2 64 36 13 40 29 12 40 -28 10 -51 42
-61 81 -5 21 -2 30 15 42 l22 16 -20 33 c-11 18 -34 46 -51 62 -17 17 -31 38
-31 48 0 19 -47 48 -80 48 -12 0 -19 4 -16 9 18 28 -137 37 -226 13z m742
-410 c0 -16 -32 -52 -46 -52 -22 0 -16 36 9 48 27 13 37 14 37 4z m-10 -82 c0
-15 -26 -23 -41 -14 -9 5 -7 10 7 15 27 11 34 10 34 -1z"/>
<path d="M10167 13088 c4 -7 56 -75 115 -150 l108 -137 0 -506 0 -505 -511 0
-512 0 -143 115 -144 115 0 -695 c0 -382 3 -695 6 -695 3 0 72 52 152 115
l147 115 502 0 503 0 0 -509 0 -509 -115 -147 c-63 -81 -115 -149 -115 -151 0
-2 315 -4 700 -4 l701 0 -121 150 -120 149 0 511 0 510 505 0 505 0 147 -116
148 -117 3 688 c1 379 0 690 -2 692 -2 3 -67 -45 -143 -106 l-138 -111 -512 0
-513 0 0 506 0 507 115 143 c63 79 115 146 115 149 0 3 -313 5 -696 5 -554 0
-694 -3 -687 -12z m863 -973 l0 -615 605 0 605 0 0 -180 0 -180 -605 0 -605 0
0 -605 0 -605 -175 0 -175 0 0 605 0 605 -610 0 -610 0 0 180 0 180 610 0 610
0 0 615 0 615 175 0 175 0 0 -615z"/>
<path d="M951 12964 c-120 -132 -221 -301 -280 -467 -200 -567 -22 -1302 526
-2169 41 -65 76 -118 78 -118 2 0 -7 24 -19 53 -43 96 -96 277 -116 391 -19
112 -19 113 -95 227 -85 127 -150 254 -190 373 -28 83 -108 416 -102 423 5 4
68 -132 104 -222 13 -33 42 -123 64 -200 25 -90 61 -183 98 -260 59 -118 103
-191 82 -135 -5 14 -21 51 -35 82 -70 157 -139 399 -177 618 -42 247 -35 694
13 855 l12 40 8 -85 c12 -137 37 -297 63 -415 27 -124 175 -586 185 -580 4 2
12 28 19 57 11 45 11 69 -3 154 -22 136 -19 144 14 44 l27 -85 35 75 c46 98
113 211 181 303 l55 74 -149 279 c-169 317 -243 475 -289 619 -17 55 -35 108
-39 119 -6 16 -16 9 -70 -50z"/>
<path d="M16176 12990 c-2 -14 -14 -72 -25 -129 -27 -143 -60 -204 -135 -257
-44 -30 -68 -56 -91 -98 -38 -68 -49 -114 -75 -316 -11 -85 -28 -191 -39 -235
l-19 -79 30 -35 c42 -48 73 -118 107 -247 16 -60 30 -107 31 -104 0 3 16 50
35 105 30 88 33 94 28 50 -3 -27 -13 -93 -23 -145 -18 -94 -18 -96 2 -135 l21
-40 64 185 c107 308 159 530 186 800 13 121 14 124 25 85 31 -102 44 -278 39
-500 -8 -335 -57 -592 -169 -883 -22 -56 -38 -108 -36 -114 3 -7 23 24 45 68
39 78 64 148 133 374 30 97 128 325 137 317 6 -7 -85 -370 -112 -447 -37 -101
-96 -217 -162 -319 -35 -54 -61 -109 -72 -150 -10 -36 -34 -110 -54 -163 -21
-53 -37 -101 -37 -105 0 -4 20 28 45 71 65 115 84 137 240 291 141 139 143
141 204 265 84 172 114 286 115 450 1 109 -2 134 -24 195 -24 69 -25 74 -25
390 0 370 2 360 -102 484 -32 38 -91 123 -131 189 -39 66 -90 139 -111 163
-39 43 -39 44 -45 19z"/>
<path d="M3425 12395 c-508 -141 -923 -346 -1230 -605 -127 -108 -120 -89 -84
-211 16 -57 32 -110 35 -118 3 -10 13 -2 31 25 72 107 204 245 343 359 l24 20
-21 -35 c-41 -66 -111 -155 -208 -265 -111 -126 -154 -185 -148 -203 3 -8 28
9 66 45 77 70 177 145 299 222 115 72 421 242 426 236 7 -7 -30 -109 -69 -189
-82 -166 -183 -278 -424 -472 -220 -178 -211 -169 -141 -138 60 25 274 79 283
70 11 -10 -131 -77 -237 -111 -63 -20 -132 -48 -154 -63 -36 -26 -40 -33 -66
-137 -45 -177 -112 -341 -219 -532 -22 -40 -37 -73 -34 -73 12 0 206 112 303
175 340 221 564 461 724 774 49 96 86 186 233 561 89 227 216 452 340 604 75
92 78 96 62 95 -8 0 -68 -15 -134 -34z"/>
<path d="M13727 12238 c40 -59 58 -98 113 -244 56 -150 83 -186 197 -268 151
-108 214 -232 277 -551 22 -107 41 -177 53 -194 11 -14 75 -65 144 -113 146
-102 252 -196 291 -258 16 -25 38 -76 49 -113 15 -52 30 -78 60 -107 53 -51
215 -133 417 -211 22 -8 22 -8 8 19 -8 15 -28 73 -45 129 -24 75 -50 130 -103
215 -108 174 -130 223 -136 299 l-5 67 -61 36 c-33 20 -110 52 -171 71 -94 30
-243 100 -233 110 7 7 224 -47 279 -70 32 -13 59 -22 59 -20 0 2 -78 66 -173
143 -248 202 -355 319 -434 477 -38 75 -78 184 -70 191 7 7 290 -149 430 -237
137 -87 214 -145 305 -233 48 -47 72 -64 72 -52 0 25 -44 86 -154 211 -141
160 -249 305 -228 305 22 0 299 -286 342 -353 l44 -67 23 101 c12 55 31 126
43 156 11 30 18 58 15 63 -10 17 -170 118 -250 159 -44 23 -123 58 -175 78
-91 34 -135 60 -317 185 -122 85 -213 105 -319 73 -79 -24 -144 -19 -261 20
-58 19 -109 35 -114 35 -4 0 8 -24 28 -52z"/>
<path d="M3183 10431 c-492 -296 -890 -670 -1138 -1072 l-56 -90 39 -107 c22
-59 47 -131 57 -161 l18 -54 23 79 c27 96 53 162 95 246 41 84 162 288 167
283 9 -8 -64 -208 -135 -370 -127 -288 -169 -446 -70 -262 99 184 254 381 497
630 l129 132 1 -71 c0 -157 -52 -352 -142 -527 -28 -55 -114 -195 -191 -311
-109 -164 -131 -203 -100 -175 21 19 59 49 83 65 58 39 201 117 206 112 9 -10
-131 -134 -220 -195 -76 -52 -113 -86 -158 -144 l-60 -77 -2 -233 c-2 -171 -8
-259 -21 -329 -15 -83 -57 -245 -79 -305 -11 -30 236 225 337 347 180 219 327
466 411 691 83 221 121 431 156 852 25 294 51 488 87 640 27 117 86 296 128
391 14 31 24 58 22 60 -2 2 -39 -18 -84 -45z"/>
<path d="M13960 10398 c17 -38 41 -124 60 -215 33 -163 44 -197 90 -271 53
-86 64 -155 54 -332 -5 -85 -9 -211 -9 -280 0 -122 1 -127 37 -205 49 -106 62
-165 93 -390 38 -287 55 -332 161 -415 130 -104 222 -240 279 -413 42 -131 52
-149 104 -209 44 -49 229 -203 236 -196 11 11 -40 230 -67 291 -85 195 -94
326 -33 478 l27 67 -36 55 c-61 92 -115 146 -210 210 -92 61 -189 146 -208
180 -20 38 205 -96 281 -167 53 -50 58 -57 -109 195 -75 113 -157 246 -183
296 -86 166 -137 363 -137 522 l1 76 90 -95 c283 -298 438 -489 518 -640 34
-63 46 -79 53 -67 10 19 -24 115 -110 307 -64 144 -135 337 -129 353 4 13 148
-231 186 -315 15 -35 43 -110 62 -165 l33 -101 29 36 c40 50 63 104 87 207 18
74 19 89 7 104 -7 9 -47 55 -89 102 -42 48 -87 107 -100 130 -14 24 -50 89
-81 144 -91 165 -153 221 -266 246 -71 15 -118 53 -216 176 -96 120 -150 168
-204 182 -20 5 -55 15 -79 21 -25 6 -81 40 -141 85 -54 41 -101 75 -104 75 -3
0 7 -28 23 -62z"/>
<path d="M400 10241 c-58 -214 -83 -419 -84 -671 -1 -384 68 -695 223 -1015
208 -429 536 -756 966 -965 77 -37 160 -75 184 -84 l43 -17 -46 58 c-26 32
-77 101 -113 153 -37 52 -114 145 -172 206 -507 530 -546 591 -677 1079 -9 33
63 -84 105 -170 22 -44 56 -127 76 -185 46 -129 83 -204 147 -297 70 -101 85
-109 32 -16 -101 178 -168 373 -254 743 -62 265 -96 376 -149 477 -21 40 -35
73 -31 73 17 0 220 -223 283 -310 37 -52 101 -162 142 -244 60 -119 75 -142
75 -117 0 18 -24 92 -54 164 -55 135 -127 341 -125 361 0 6 42 -73 93 -175
l92 -186 12 92 c7 51 23 132 36 179 l23 86 -76 73 c-42 40 -139 126 -216 192
-225 191 -404 379 -506 535 l-17 25 -12 -44z"/>
<path d="M16705 10192 c-12 -32 -47 -75 -106 -133 -74 -74 -89 -95 -103 -141
-31 -106 -96 -170 -295 -288 -64 -38 -146 -94 -183 -125 -68 -56 -68 -57 -62
-98 7 -52 36 -160 68 -252 l24 -70 18 45 c32 81 155 323 160 317 7 -7 -74
-245 -124 -365 -22 -52 -37 -103 -35 -116 4 -17 18 3 62 89 98 189 263 407
385 508 l46 38 -34 -63 c-49 -89 -98 -242 -151 -473 -55 -237 -81 -334 -130
-475 -37 -106 -127 -297 -166 -351 -42 -59 -9 -27 39 39 82 111 119 180 175
332 30 80 67 170 82 200 37 74 96 172 101 167 2 -2 -5 -30 -15 -63 -10 -32
-35 -113 -56 -179 -72 -233 -168 -387 -370 -591 -33 -33 -99 -106 -148 -161
-48 -56 -103 -113 -122 -127 -22 -17 -51 -60 -81 -117 -34 -66 -69 -114 -128
-177 -87 -92 -83 -92 71 5 142 89 193 110 286 117 133 12 231 60 338 166 104
103 169 217 244 425 58 161 119 281 203 397 109 153 113 166 123 412 9 231 20
368 46 580 20 169 16 193 -62 368 -31 70 -59 143 -62 163 -3 19 -9 37 -12 39
-4 3 -15 -17 -26 -42z"/>
<path d="M3245 7481 c-170 -263 -348 -676 -429 -999 l-26 -102 48 -73 c27 -39
61 -94 77 -120 15 -26 30 -45 34 -42 3 4 18 41 34 83 l27 77 -4 -135 c-4 -102
-1 -141 9 -160 l13 -25 10 25 c6 14 45 99 87 190 93 198 128 286 160 405 29
106 55 252 55 306 0 65 18 53 46 -33 25 -75 28 -97 28 -233 0 -179 -16 -257
-124 -607 -108 -353 -130 -432 -123 -457 5 -19 15 -5 59 80 30 56 77 136 105
178 59 87 212 282 217 276 6 -6 -89 -167 -186 -315 -132 -200 -182 -295 -175
-334 2 -17 7 -75 11 -129 l7 -98 103 -44 103 -43 29 46 c62 98 152 295 194
424 130 393 136 786 20 1191 -36 125 -101 292 -158 404 -38 76 -155 271 -186
310 l-19 25 -46 -71z"/>
<path d="M13854 7444 c-26 -48 -67 -110 -92 -137 -59 -67 -75 -105 -111 -275
-31 -149 -63 -225 -111 -265 -106 -90 -163 -308 -140 -534 13 -123 30 -183 86
-305 44 -94 61 -159 113 -423 36 -184 69 -250 170 -331 l63 -51 93 41 93 41
-5 150 c-6 175 2 155 -173 425 -104 160 -197 320 -187 320 11 0 163 -198 226
-296 36 -55 82 -133 101 -172 36 -74 46 -84 52 -54 5 21 -14 92 -104 382 -166
537 -183 698 -101 945 20 62 26 49 42 -85 13 -121 48 -256 99 -390 46 -122
184 -420 194 -420 19 0 30 80 25 177 -6 99 4 138 17 71 4 -18 13 -46 19 -62
l13 -30 28 48 c15 26 52 71 83 101 l55 54 -10 64 c-9 59 -21 92 -98 277 -21
51 -29 90 -35 181 -14 203 -69 319 -178 378 -72 38 -98 72 -136 184 -15 42
-31 77 -36 77 -4 0 -29 -39 -55 -86z"/>
<path d="M856 7273 c-15 -112 -1 -376 30 -563 84 -506 320 -970 674 -1328 95
-96 234 -216 312 -270 l45 -31 52 39 c29 22 84 57 122 77 38 21 68 41 66 45
-1 3 -57 47 -123 97 -249 185 -354 313 -517 626 l-58 110 67 -70 c59 -63 107
-130 258 -364 49 -75 187 -226 241 -264 23 -16 20 -10 -16 29 -133 144 -248
328 -392 624 -60 124 -129 267 -154 318 -53 108 -125 222 -179 281 -20 23 -35
43 -33 46 13 12 252 -170 373 -285 63 -59 78 -70 73 -50 -3 14 -9 45 -13 70
-4 25 -19 68 -33 95 -35 67 -36 75 -10 45 l22 -25 -6 85 c-4 47 -7 97 -7 111
0 23 -22 39 -186 140 -213 131 -391 261 -515 377 l-86 81 -7 -46z"/>
<path d="M16235 7185 c-125 -149 -164 -176 -264 -185 -96 -9 -122 -23 -229
-122 -48 -44 -104 -91 -124 -104 -33 -21 -38 -29 -38 -62 0 -20 -9 -73 -19
-117 -19 -79 -19 -80 0 -56 29 35 23 15 -15 -53 -19 -34 -46 -99 -60 -145
l-25 -84 102 101 c56 55 127 120 157 145 68 54 215 157 225 157 4 0 -11 -21
-33 -47 -67 -81 -131 -189 -209 -351 -241 -505 -322 -646 -483 -837 l-84 -100
73 65 c88 79 159 162 219 255 117 182 177 266 238 337 37 43 69 76 71 74 6 -6
-153 -292 -206 -370 -81 -122 -282 -317 -421 -407 l-25 -16 85 -43 c47 -23
109 -58 139 -77 29 -19 54 -33 55 -31 1 2 11 25 20 51 27 73 117 162 278 273
264 184 327 264 348 439 24 203 69 305 182 415 42 41 82 89 89 105 9 21 13 91
14 230 l0 200 43 78 c35 65 42 88 42 132 0 50 -34 252 -44 262 -2 2 -47 -48
-101 -112z"/>
<path d="M4296 5740 c-12 -33 -58 -263 -76 -380 -27 -176 -50 -425 -50 -546
l0 -103 181 -121 c99 -67 182 -120 184 -118 13 13 35 284 35 429 0 257 -13
327 -91 473 -34 66 -89 178 -120 250 -32 72 -60 124 -63 116z"/>
<path d="M12828 5492 c-42 -86 -101 -200 -132 -253 l-56 -97 -9 -130 c-10
-144 0 -347 24 -500 9 -53 17 -97 19 -99 2 -2 80 48 173 111 l170 115 7 48 c4
26 9 95 12 153 5 95 3 113 -21 190 -23 75 -27 109 -34 290 -6 176 -10 211 -28
250 -43 94 -40 97 -125 -78z"/>
<path d="M2478 5265 c-210 -33 -445 -149 -569 -281 -25 -27 -83 -101 -130
-164 -122 -165 -236 -299 -439 -515 -215 -230 -301 -329 -394 -454 -67 -91
-216 -335 -216 -354 0 -5 15 1 33 12 223 146 426 205 702 205 237 0 381 -35
754 -183 582 -233 989 -457 1806 -994 636 -418 890 -573 1220 -741 880 -450
1852 -696 3120 -791 261 -20 333 -19 636 5 1048 83 1893 271 2644 590 410 174
954 477 1345 750 202 140 537 362 712 471 553 344 1183 657 1602 794 258 85
340 100 541 99 150 0 182 -3 276 -26 158 -40 269 -87 424 -179 l39 -23 -47 88
c-119 219 -242 377 -555 714 -253 273 -309 338 -442 517 -129 172 -238 276
-357 338 -470 245 -949 164 -1710 -289 -81 -49 -425 -274 -764 -501 -695 -464
-878 -581 -1198 -764 -938 -537 -1789 -812 -2694 -870 -493 -31 -1169 78
-1782 288 -665 228 -1262 547 -2148 1145 -936 632 -1110 742 -1385 881 -408
206 -725 278 -1024 232z m932 -741 c69 -44 135 -86 146 -92 12 -6 24 -18 27
-26 3 -8 -23 -167 -59 -352 -35 -185 -62 -339 -60 -341 2 -3 134 79 293 181
159 102 296 188 304 191 14 5 244 -135 261 -159 16 -23 -14 -35 -71 -30 -52 6
-58 4 -82 -23 -32 -34 -332 -526 -366 -600 -27 -59 -25 -79 15 -130 25 -34 24
-63 -3 -63 -8 0 -50 26 -93 58 -43 32 -124 85 -181 117 -116 67 -125 86 -47
97 27 4 57 15 67 25 20 20 270 445 265 450 -2 2 -139 -77 -304 -177 -165 -99
-307 -180 -315 -180 -9 0 -19 4 -22 10 -3 5 15 165 40 356 25 191 44 348 42
350 -5 5 -245 -358 -256 -389 -18 -46 -13 -90 14 -129 29 -43 33 -78 9 -78 -9
0 -48 24 -87 53 -39 28 -100 68 -136 88 -46 25 -66 41 -66 55 0 16 9 20 65 24
97 7 100 11 325 319 163 223 185 260 185 306 0 30 -46 115 -69 129 -15 10 -14
43 2 49 15 5 4 11 157 -89z m10480 -11 c0 -10 -9 -31 -20 -48 -24 -37 -25 -73
-3 -105 40 -59 435 -530 460 -550 25 -20 35 -21 101 -15 68 6 72 6 72 -14 0
-14 -19 -32 -68 -61 -38 -22 -116 -79 -175 -125 -58 -47 -113 -85 -121 -85
-19 0 -20 24 -5 68 8 25 8 38 -4 61 -14 28 -338 414 -343 408 -1 -1 29 -150
67 -332 37 -181 68 -342 69 -357 0 -22 -5 -28 -20 -28 -11 0 -163 73 -338 162
-174 89 -312 155 -306 147 6 -8 65 -86 132 -175 66 -89 138 -176 159 -193 37
-32 39 -33 114 -27 61 5 78 3 82 -8 7 -17 -5 -27 -113 -98 -47 -31 -98 -70
-114 -87 -51 -53 -87 -38 -61 25 22 54 18 102 -14 161 -53 95 -334 495 -366
519 -37 28 -100 32 -163 10 -33 -12 -43 -12 -58 -2 -9 7 -14 18 -11 23 4 6 68
54 142 108 74 53 137 101 141 106 14 23 67 -2 340 -161 160 -93 297 -170 303
-170 7 0 10 8 7 18 -30 101 -153 658 -148 668 12 22 226 174 244 174 11 0 18
-7 18 -17z m-1084 -784 c3 -6 -3 -24 -15 -40 -32 -44 -26 -77 31 -170 263
-429 273 -448 272 -565 0 -60 -5 -82 -32 -137 -58 -117 -183 -219 -345 -280
-70 -26 -96 -31 -177 -31 -80 -1 -102 3 -136 21 -67 36 -131 117 -268 338 -72
115 -142 223 -157 239 -28 31 -35 33 -129 23 -19 -1 -26 3 -28 19 -2 18 12 29
80 64 46 23 126 71 179 106 53 35 103 64 112 64 22 0 22 -33 1 -65 -20 -31
-23 -24 142 -291 182 -293 232 -339 369 -339 54 0 81 6 120 24 159 79 218 228
153 388 -34 84 -182 322 -241 388 -58 66 -99 82 -164 65 -37 -9 -49 -8 -59 2
-19 18 -8 29 66 65 36 18 92 52 125 77 61 45 88 55 101 35z m-7950 -84 c4 -8
-13 -226 -36 -483 -29 -327 -41 -493 -37 -554 7 -108 4 -109 -101 -37 -40 28
-120 75 -175 103 -78 39 -102 56 -102 71 0 17 8 21 50 25 l50 5 12 49 c7 26
15 79 19 116 l6 67 -33 26 c-36 26 -229 137 -240 137 -18 0 -131 -96 -145
-122 -18 -35 -11 -61 28 -106 59 -68 11 -81 -75 -21 -34 24 -93 59 -132 79
-88 44 -90 61 -10 76 33 6 71 16 85 24 14 7 185 124 380 260 490 341 446 313
456 285z m541 -346 c46 -28 151 -82 232 -119 167 -76 220 -107 274 -159 87
-82 106 -186 54 -293 -51 -105 -138 -156 -244 -145 -58 6 -59 6 -41 -26 8 -14
15 -90 19 -202 7 -194 13 -221 60 -249 36 -21 36 -31 4 -52 -70 -46 -257 46
-301 149 -16 36 -19 69 -19 244 0 194 -1 203 -22 224 -12 12 -28 19 -36 16
-24 -9 -139 -234 -145 -283 -4 -36 0 -50 22 -78 30 -40 34 -66 9 -66 -9 0 -62
27 -117 59 -56 33 -135 73 -176 90 -96 40 -103 45 -98 67 2 15 14 20 50 22 38
2 51 8 66 30 11 15 94 169 186 343 107 204 166 326 166 345 0 21 -10 40 -30
59 -16 16 -30 34 -30 40 0 11 20 35 28 35 2 0 42 -23 89 -51z m6367 -293 c72
-42 136 -155 136 -239 -1 -42 -29 -104 -70 -150 l-32 -37 32 -6 c17 -4 79 -42
138 -85 59 -43 133 -93 166 -110 54 -29 61 -31 97 -20 22 7 44 9 49 6 41 -25
-51 -129 -144 -164 -117 -44 -193 -19 -371 124 -60 48 -124 94 -141 103 -36
17 -84 10 -84 -13 0 -7 30 -73 66 -145 74 -148 101 -175 165 -166 26 4 40 1
50 -10 18 -22 -1 -35 -105 -75 -45 -17 -127 -55 -184 -86 -83 -44 -106 -52
-117 -43 -20 17 -19 24 10 58 14 17 25 36 25 44 0 18 -314 665 -340 700 -18
25 -27 28 -79 28 -41 0 -60 4 -64 14 -8 21 19 39 113 76 47 19 162 73 256 121
94 48 191 92 215 98 72 17 162 7 213 -23z m-5510 -137 c112 -51 367 -150 490
-190 50 -17 97 -37 104 -44 12 -10 8 -29 -20 -111 -30 -90 -36 -99 -58 -99
-24 0 -25 4 -30 69 -5 66 -7 70 -48 106 -50 45 -165 93 -208 88 -27 -3 -32
-11 -87 -147 -68 -167 -67 -179 9 -205 85 -29 141 -18 193 38 26 28 61 35 61
12 0 -8 -16 -47 -35 -87 -19 -41 -42 -105 -51 -144 -19 -86 -26 -100 -50 -100
-16 0 -20 10 -25 68 -7 80 -32 113 -111 147 -83 36 -85 34 -151 -129 -67 -166
-72 -195 -33 -227 53 -47 190 -68 278 -44 20 6 60 26 88 45 88 59 119 39 75
-51 -29 -59 -100 -130 -141 -140 -41 -10 -92 7 -288 96 -98 45 -226 97 -285
116 -58 20 -110 39 -115 44 -14 14 13 40 40 40 52 0 71 34 200 360 145 364
154 392 130 438 -9 18 -21 32 -26 32 -13 0 -32 38 -25 50 10 16 22 13 119 -31z
m4653 -279 c46 -114 52 -147 27 -157 -11 -4 -33 14 -72 56 -48 53 -63 63 -97
67 -49 6 -164 -25 -178 -47 -8 -12 9 -81 67 -275 152 -507 139 -481 246 -486
57 -3 65 -5 65 -23 0 -17 -18 -25 -140 -55 -78 -20 -181 -50 -231 -68 -49 -18
-95 -32 -102 -32 -28 0 -23 32 12 70 20 22 36 50 36 62 0 24 -195 681 -212
711 -23 44 -175 -8 -209 -73 -12 -21 -19 -55 -19 -86 0 -60 -20 -88 -46 -62
-20 19 -61 235 -48 255 5 8 135 51 299 98 160 46 340 99 400 118 158 50 152
53 202 -73z m-3498 -125 c123 -18 169 -29 181 -42 9 -10 111 -163 225 -340
115 -177 211 -321 213 -319 6 7 62 389 62 428 0 62 -21 90 -89 122 -100 46
-71 88 39 56 19 -6 80 -15 135 -21 55 -5 104 -15 110 -20 15 -15 -6 -40 -45
-53 -24 -8 -40 -22 -52 -46 -10 -21 -41 -195 -77 -435 -34 -220 -63 -410 -66
-422 -8 -36 -47 -29 -81 15 -17 20 -151 209 -299 419 -148 211 -272 380 -276
375 -11 -12 -73 -442 -73 -507 -1 -80 22 -117 91 -150 52 -24 68 -50 38 -61
-8 -3 -58 3 -110 15 -53 12 -115 21 -138 21 -128 0 -155 31 -63 73 80 37 97
79 136 342 47 328 51 364 40 405 -13 50 -44 86 -91 110 -54 28 -54 77 1 65 14
-3 99 -16 189 -30z m2525 -41 c3 -9 6 -26 6 -39 0 -12 13 -68 29 -125 17 -56
27 -108 24 -116 -11 -29 -40 -11 -86 56 -94 139 -218 188 -325 131 -56 -30
-71 -137 -26 -190 30 -36 63 -46 202 -61 110 -12 163 -27 228 -65 123 -72 177
-272 110 -408 -35 -73 -118 -149 -194 -178 -70 -26 -280 -39 -350 -20 -53 15
-65 33 -97 151 -28 106 -32 175 -12 183 19 7 30 -2 62 -53 72 -116 148 -179
243 -201 64 -15 117 -2 167 42 58 51 65 126 20 196 -23 34 -65 49 -186 69
-206 32 -283 73 -334 177 -31 65 -42 165 -26 234 38 157 234 258 403 209 59
-17 83 -14 92 10 7 19 42 18 50 -2z m-986 -59 c127 -30 252 -113 317 -210 109
-165 107 -405 -6 -574 -108 -161 -283 -240 -508 -228 -126 6 -205 31 -294 91
-132 88 -188 195 -195 370 -8 188 28 288 142 401 77 76 164 125 264 150 76 18
202 18 280 0z"/>
<path d="M4456 3315 c-58 -42 -106 -82 -106 -89 0 -15 168 -116 193 -116 20 0
24 14 37 148 10 108 9 132 -9 132 -5 0 -56 -34 -115 -75z"/>
<path d="M5572 3078 c-56 -92 -161 -309 -156 -322 8 -22 97 -56 147 -56 29 0
55 8 77 23 39 26 94 121 111 190 16 66 -7 127 -64 168 -54 39 -90 38 -115 -3z"/>
<path d="M11405 2898 c-41 -15 -65 -37 -65 -62 0 -12 36 -95 80 -185 l80 -163
30 6 c54 10 117 61 135 109 18 49 11 96 -26 169 -57 112 -142 158 -234 126z"/>
<path d="M8665 2291 c-46 -21 -101 -78 -123 -130 -23 -55 -28 -254 -8 -368 42
-240 151 -373 308 -373 108 0 181 61 219 180 29 90 29 264 0 371 -24 94 -88
223 -133 268 -67 69 -178 91 -263 52z"/>
<path d="M4703 4933 c15 -69 20 -145 24 -344 l5 -257 59 -41 c59 -42 59 -42
68 -19 4 13 26 70 47 127 21 57 40 99 41 94 3 -9 -33 -177 -53 -249 -4 -17 15
-33 125 -107 72 -48 133 -87 136 -87 7 0 4 256 -4 321 -6 49 -14 65 -56 114
-101 116 -246 300 -321 408 -43 62 -80 115 -84 120 -3 4 2 -32 13 -80z"/>
<path d="M12465 4878 c-71 -109 -260 -339 -391 -479 l-82 -86 9 -56 c5 -31 23
-93 39 -139 17 -46 33 -89 35 -95 3 -8 46 14 122 63 65 42 119 78 121 79 1 1
-11 56 -27 121 -49 203 -47 224 9 79 27 -71 49 -135 50 -142 0 -24 18 -21 67
12 l51 34 5 283 c3 156 10 302 15 326 5 23 8 42 7 42 -1 0 -15 -19 -30 -42z"/>
<path d="M5745 3817 c-4 -34 -5 -79 -3 -101 l3 -38 160 -89 c87 -48 160 -87
161 -86 1 1 0 39 -3 83 -5 75 -8 83 -33 97 -14 9 -83 56 -152 106 l-127 89 -6
-61z"/>
<path d="M11410 3816 c-8 -8 -73 -52 -143 -99 l-128 -85 -5 -86 c-3 -47 -2
-86 1 -86 9 0 79 36 228 118 108 59 137 79 137 96 0 21 -61 155 -70 156 -3 0
-12 -6 -20 -14z"/>
<path d="M1282 3639 c-275 -32 -519 -168 -609 -341 -23 -45 -28 -65 -28 -133
0 -67 4 -89 27 -135 70 -142 215 -263 453 -380 157 -77 285 -123 470 -170 274
-70 386 -82 835 -85 567 -5 810 -29 1045 -102 156 -49 262 -121 308 -208 44
-83 22 -213 -57 -332 -19 -29 -32 -53 -29 -53 22 0 256 193 353 290 98 98 242
283 229 294 -2 2 -83 57 -179 123 -705 483 -1321 827 -1894 1059 -358 145
-667 203 -924 173z"/>
<path d="M15716 3639 c-308 -32 -674 -165 -1226 -445 -416 -210 -850 -474
-1357 -823 l-132 -91 54 -77 c133 -188 258 -308 493 -477 l53 -39 -40 63 c-61
95 -83 162 -79 241 12 220 271 340 843 389 72 7 308 13 525 15 217 2 433 8
480 14 383 50 774 183 1023 348 90 59 205 172 243 237 95 165 40 357 -138 478
-208 141 -458 197 -742 167z"/>
<path d="M6151 3573 c6 -21 17 -61 24 -89 l15 -51 172 -81 c219 -102 338 -153
338 -144 0 3 -12 36 -26 72 l-25 65 -137 67 c-75 37 -189 96 -251 132 -63 36
-116 66 -117 66 -1 0 2 -17 7 -37z"/>
<path d="M10940 3518 c-58 -33 -149 -80 -202 -106 -54 -26 -98 -52 -98 -58 0
-7 -17 -46 -38 -87 l-38 -75 36 14 c102 43 311 138 355 162 50 27 50 27 72
112 13 47 22 88 20 91 -1 3 -49 -21 -107 -53z"/>
<path d="M16475 2770 c-12 -19 -184 -129 -270 -172 -157 -79 -379 -156 -586
-202 -240 -53 -296 -58 -804 -66 -601 -10 -817 -33 -1028 -110 -202 -74 -279
-177 -242 -323 31 -121 106 -216 209 -263 60 -27 203 -54 292 -54 251 0 579
113 937 324 415 244 879 333 1699 324 282 -3 306 -2 290 13 -9 9 -79 71 -154
138 -173 153 -233 220 -290 322 -28 48 -49 76 -53 69z"/>
<path d="M763 2712 c-59 -108 -124 -182 -294 -333 -93 -82 -169 -151 -169
-152 0 -1 138 -1 307 1 545 6 913 -31 1236 -124 162 -46 280 -98 462 -202 400
-228 662 -317 935 -316 257 0 392 66 470 230 64 133 48 248 -44 316 -121 90
-317 146 -626 179 -58 6 -319 15 -580 19 -360 6 -499 12 -575 24 -412 68 -729
180 -987 352 -53 35 -98 64 -100 64 -2 0 -17 -26 -35 -58z"/>
<path d="M4470 2034 c-141 -75 -261 -129 -401 -179 -101 -36 -189 -86 -189
-107 0 -16 248 -170 372 -231 304 -150 591 -219 913 -219 177 -1 275 10 440
49 115 27 275 80 275 92 0 3 -24 15 -52 25 -29 10 -108 42 -175 71 l-122 52
-95 -10 c-90 -10 -251 -1 -406 22 l-45 7 70 13 c39 7 140 13 225 13 148 0 153
1 120 15 -19 9 -73 20 -120 24 -47 5 -184 26 -305 46 -184 31 -245 37 -369 38
l-148 0 68 32 c83 38 235 88 322 106 l63 12 -53 27 c-29 15 -80 31 -113 35
-59 7 -59 7 -20 12 l40 6 -25 16 c-90 59 -142 89 -153 89 -6 0 -59 -25 -117
-56z"/>
<path d="M12562 2000 c-34 -20 -59 -40 -55 -43 3 -4 -1 -7 -11 -7 -18 0 -136
-61 -136 -71 0 -3 32 -13 71 -22 76 -18 264 -89 292 -110 14 -10 -6 -11 -110
-9 -92 2 -163 -2 -253 -17 -69 -11 -190 -29 -270 -41 -80 -12 -165 -29 -190
-38 l-45 -17 122 -6 c120 -6 179 -14 218 -27 30 -10 -81 -20 -295 -28 l-185
-6 -185 -73 c-102 -40 -194 -76 -205 -80 -36 -13 28 -25 191 -35 167 -10 229
-26 336 -85 96 -52 171 -68 302 -63 143 6 201 28 291 109 81 73 128 104 226
145 94 40 211 69 354 89 78 11 121 23 151 40 37 22 185 149 192 165 1 4 -21
12 -50 18 -29 7 -141 55 -248 108 -187 91 -200 95 -288 104 -51 6 -107 16
-125 24 -32 13 -36 12 -95 -24z"/>
<path d="M7155 999 c-287 -82 -904 -234 -1230 -304 -170 -36 -323 -71 -339
-77 -48 -19 -86 -58 -141 -143 -28 -45 -78 -103 -109 -131 -31 -27 -66 -66
-77 -86 -23 -44 -25 -88 -4 -88 53 0 474 135 1599 512 l929 312 -194 28 c-107
15 -210 27 -229 27 -19 -1 -111 -23 -205 -50z"/>
<path d="M9720 1023 c-91 -13 -181 -26 -200 -29 -29 -5 98 -51 810 -291 1108
-373 1548 -513 1608 -513 17 0 22 6 22 25 0 28 -36 105 -49 105 -20 0 -115
105 -165 183 -57 88 -87 116 -146 136 -19 6 -141 34 -270 61 -403 84 -677 150
-1141 276 -151 40 -282 73 -290 73 -8 -1 -88 -13 -179 -26z"/>
</g>
</svg>
